<?xml version="1.0" encoding="UTF-8" standalone="no"?>
<!DOCTYPE svg PUBLIC "-//W3C//DTD SVG 1.1//EN"
 "http://www.w3.org/Graphics/SVG/1.1/DTD/svg11.dtd">
<!-- Generated by graphviz version 9.0.0 (20230911.1827)
 -->
<!-- Title: EvidenceGraph Pages: 1 -->
<svg width="1378pt" height="1168pt"
 viewBox="0.00 0.00 1377.50 1168.00" xmlns="http://www.w3.org/2000/svg" xmlns:xlink="http://www.w3.org/1999/xlink">
<g id="graph0" class="graph" transform="scale(1 1) rotate(0) translate(4 1164)">
<title>EvidenceGraph</title>
<polygon fill="#111111" stroke="none" points="-4,4 -4,-1164 1373.5,-1164 1373.5,4 -4,4"/>
<!-- run -->
<g id="node1" class="node">
<title>run</title>
<path fill="#333333" stroke="#666666" d="M406.38,-699C406.38,-699 92.62,-699 92.62,-699 86.62,-699 80.62,-693 80.62,-687 80.62,-687 80.62,-675 80.62,-675 80.62,-669 86.62,-663 92.62,-663 92.62,-663 406.38,-663 406.38,-663 412.38,-663 418.38,-669 418.38,-675 418.38,-675 418.38,-687 418.38,-687 418.38,-693 412.38,-699 406.38,-699"/>
<text text-anchor="middle" x="249.5" y="-677.5" font-family="Helvetica,sans-Serif" font-size="10.00" fill="#eeeeee">AM Run\nCycle: 1\nam_run_1781492463740_cycle1_1781493358392.json</text>
</g>
<!-- sim_TED -->
<g id="node2" class="node">
<title>sim_TED</title>
<path fill="#1f2937" stroke="#666666" d="M774.5,-991C774.5,-991 630.25,-991 630.25,-991 624.25,-991 618.25,-985 618.25,-979 618.25,-979 618.25,-967 618.25,-967 618.25,-961 624.25,-955 630.25,-955 630.25,-955 774.5,-955 774.5,-955 780.5,-955 786.5,-961 786.5,-967 786.5,-967 786.5,-979 786.5,-979 786.5,-985 780.5,-991 774.5,-991"/>
<text text-anchor="middle" x="702.38" y="-969.5" font-family="Helvetica,sans-Serif" font-size="10.00" fill="#eeeeee">TED\nSuf:17.6 Hope:73.8 San:85.2</text>
</g>
<!-- run&#45;&gt;sim_TED -->
<g id="edge1" class="edge">
<title>run&#45;&gt;sim_TED</title>
<path fill="none" stroke="#999999" d="M418.82,-679.35C448.94,-686.64 477.53,-699.73 499,-722 542.85,-767.48 476.63,-814.41 517,-863 536.24,-886.16 560.53,-862.14 581.5,-883.75 601.56,-904.42 578.91,-925.86 599.5,-946 602.18,-948.62 605.09,-951 608.16,-953.15"/>
<polygon fill="#999999" stroke="#999999" points="606.18,-956.04 616.55,-958.18 609.77,-950.03 606.18,-956.04"/>
<text text-anchor="middle" x="549.25" y="-885.7" font-family="Helvetica,sans-Serif" font-size="9.00" fill="#cccccc">agent</text>
</g>
<!-- sim_ELLEN -->
<g id="node9" class="node">
<title>sim_ELLEN</title>
<path fill="#1f2937" stroke="#666666" d="M780.5,-767C780.5,-767 624.25,-767 624.25,-767 618.25,-767 612.25,-761 612.25,-755 612.25,-755 612.25,-743 612.25,-743 612.25,-737 618.25,-731 624.25,-731 624.25,-731 780.5,-731 780.5,-731 786.5,-731 792.5,-737 792.5,-743 792.5,-743 792.5,-755 792.5,-755 792.5,-761 786.5,-767 780.5,-767"/>
<text text-anchor="middle" x="702.38" y="-745.5" font-family="Helvetica,sans-Serif" font-size="10.00" fill="#eeeeee">ELLEN\nSuf:25.1 Hope:68.7 San:82.8</text>
</g>
<!-- run&#45;&gt;sim_ELLEN -->
<g id="edge8" class="edge">
<title>run&#45;&gt;sim_ELLEN</title>
<path fill="none" stroke="#999999" d="M373.11,-699.49C444.62,-710.28 533.7,-723.71 601.01,-733.86"/>
<polygon fill="#999999" stroke="#999999" points="600.14,-737.27 610.55,-735.3 601.18,-730.35 600.14,-737.27"/>
<text text-anchor="middle" x="549.25" y="-732.7" font-family="Helvetica,sans-Serif" font-size="9.00" fill="#cccccc">agent</text>
</g>
<!-- sim_NIMDOK -->
<g id="node16" class="node">
<title>sim_NIMDOK</title>
<path fill="#1f2937" stroke="#666666" d="M784.25,-637C784.25,-637 620.5,-637 620.5,-637 614.5,-637 608.5,-631 608.5,-625 608.5,-625 608.5,-613 608.5,-613 608.5,-607 614.5,-601 620.5,-601 620.5,-601 784.25,-601 784.25,-601 790.25,-601 796.25,-607 796.25,-613 796.25,-613 796.25,-625 796.25,-625 796.25,-631 790.25,-637 784.25,-637"/>
<text text-anchor="middle" x="702.38" y="-615.5" font-family="Helvetica,sans-Serif" font-size="10.00" fill="#eeeeee">NIMDOK\nSuf:31.7 Hope:59.7 San:75.8</text>
</g>
<!-- run&#45;&gt;sim_NIMDOK -->
<g id="edge15" class="edge">
<title>run&#45;&gt;sim_NIMDOK</title>
<path fill="none" stroke="#999999" d="M418.7,-678.15C471.21,-675.04 529.09,-669.31 581.5,-659 602.57,-654.86 625.05,-648.03 644.78,-641.19"/>
<polygon fill="#999999" stroke="#999999" points="645.76,-644.55 654.01,-637.9 643.42,-637.96 645.76,-644.55"/>
<text text-anchor="middle" x="549.25" y="-671.7" font-family="Helvetica,sans-Serif" font-size="9.00" fill="#cccccc">agent</text>
</g>
<!-- sim_GORRISTER -->
<g id="node23" class="node">
<title>sim_GORRISTER</title>
<path fill="#1f2937" stroke="#666666" d="M793.25,-421C793.25,-421 611.5,-421 611.5,-421 605.5,-421 599.5,-415 599.5,-409 599.5,-409 599.5,-397 599.5,-397 599.5,-391 605.5,-385 611.5,-385 611.5,-385 793.25,-385 793.25,-385 799.25,-385 805.25,-391 805.25,-397 805.25,-397 805.25,-409 805.25,-409 805.25,-415 799.25,-421 793.25,-421"/>
<text text-anchor="middle" x="702.38" y="-399.5" font-family="Helvetica,sans-Serif" font-size="10.00" fill="#eeeeee">GORRISTER\nSuf:32.4 Hope:64.1 San:76.0</text>
</g>
<!-- run&#45;&gt;sim_GORRISTER -->
<g id="edge22" class="edge">
<title>run&#45;&gt;sim_GORRISTER</title>
<path fill="none" stroke="#999999" d="M381.99,-662.53C471.29,-649.37 574.44,-632.71 581.5,-625 610.89,-592.91 571.4,-463.23 599.5,-430 599.75,-429.7 600.01,-429.4 600.27,-429.11"/>
<polygon fill="#999999" stroke="#999999" points="602.52,-431.8 607.46,-422.43 597.75,-426.67 602.52,-431.8"/>
<text text-anchor="middle" x="549.25" y="-642.7" font-family="Helvetica,sans-Serif" font-size="9.00" fill="#cccccc">agent</text>
</g>
<!-- sim_BENNY -->
<g id="node30" class="node">
<title>sim_BENNY</title>
<path fill="#1f2937" stroke="#666666" d="M782,-205C782,-205 622.75,-205 622.75,-205 616.75,-205 610.75,-199 610.75,-193 610.75,-193 610.75,-181 610.75,-181 610.75,-175 616.75,-169 622.75,-169 622.75,-169 782,-169 782,-169 788,-169 794,-175 794,-181 794,-181 794,-193 794,-193 794,-199 788,-205 782,-205"/>
<text text-anchor="middle" x="702.38" y="-183.5" font-family="Helvetica,sans-Serif" font-size="10.00" fill="#eeeeee">BENNY\nSuf:28.0 Hope:75.2 San:67.7</text>
</g>
<!-- run&#45;&gt;sim_BENNY -->
<g id="edge29" class="edge">
<title>run&#45;&gt;sim_BENNY</title>
<path fill="none" stroke="#999999" d="M418.66,-683.25C448.98,-675.96 477.68,-662.72 499,-640 526.4,-610.81 496.87,-495.35 517,-460.75 534.68,-430.37 563.99,-445.47 581.5,-415 603.84,-376.12 570.59,-248.28 599.5,-214 600.2,-213.17 600.92,-212.37 601.65,-211.59"/>
<polygon fill="#999999" stroke="#999999" points="603.9,-214.28 609.16,-205.09 599.31,-208.99 603.9,-214.28"/>
<text text-anchor="middle" x="549.25" y="-462.7" font-family="Helvetica,sans-Serif" font-size="9.00" fill="#cccccc">agent</text>
</g>
<!-- dynamics_TED_1 -->
<g id="node8" class="node">
<title>dynamics_TED_1</title>
<path fill="#0f3a4a" stroke="#666666" d="M1354.88,-991C1354.88,-991 891.88,-991 891.88,-991 885.88,-991 879.88,-985 879.88,-979 879.88,-979 879.88,-967 879.88,-967 879.88,-961 885.88,-955 891.88,-955 891.88,-955 1354.88,-955 1354.88,-955 1360.88,-955 1366.88,-961 1366.88,-967 1366.88,-967 1366.88,-979 1366.88,-979 1366.88,-985 1360.88,-991 1354.88,-991"/>
<text text-anchor="middle" x="1123.38" y="-969.5" font-family="Helvetica,sans-Serif" font-size="10.00" fill="#eeeeee">DYNAMICS\nΔHope &#45;4.1839999999999975\nΔSanity &#45;4.799999999999997\nΔSuffering +5.640000000000001</text>
</g>
<!-- sim_TED&#45;&gt;dynamics_TED_1 -->
<g id="edge7" class="edge">
<title>sim_TED&#45;&gt;dynamics_TED_1</title>
<path fill="none" stroke="#999999" d="M786.91,-973C811.25,-973 839.21,-973 868.37,-973"/>
<polygon fill="#999999" stroke="#999999" points="868.08,-976.5 878.08,-973 868.08,-969.5 868.08,-976.5"/>
<text text-anchor="middle" x="841.25" y="-975.7" font-family="Helvetica,sans-Serif" font-size="9.00" fill="#cccccc">changed</text>
</g>
<!-- tactic_TED___embedded___philosophical_gaslighting -->
<g id="node3" class="node">
<title>tactic_TED___embedded___philosophical_gaslighting</title>
<path fill="#4a321f" stroke="#666666" d="M465.62,-1081C465.62,-1081 33.38,-1081 33.38,-1081 27.38,-1081 21.38,-1075 21.38,-1069 21.38,-1069 21.38,-1057 21.38,-1057 21.38,-1051 27.38,-1045 33.38,-1045 33.38,-1045 465.62,-1045 465.62,-1045 471.62,-1045 477.62,-1051 477.62,-1057 477.62,-1057 477.62,-1069 477.62,-1069 477.62,-1075 471.62,-1081 465.62,-1081"/>
<text text-anchor="middle" x="249.5" y="-1059.5" font-family="Helvetica,sans-Serif" font-size="10.00" fill="#eeeeee">TACTIC\nPhilosophical Gaslighting\nreported H:&#45;4 San:&#45;6 Suf:+5\neffective H:&#45;4.18 San:&#45;4.8 Suf:+5.64</text>
</g>
<!-- tactic_TED___embedded___philosophical_gaslighting&#45;&gt;sim_TED -->
<g id="edge2" class="edge">
<title>tactic_TED___embedded___philosophical_gaslighting&#45;&gt;sim_TED</title>
<path fill="none" stroke="#999999" d="M343.1,-1044.52C420.11,-1029.14 529.26,-1007.36 606.8,-991.88"/>
<polygon fill="#999999" stroke="#999999" points="607.4,-995.33 616.52,-989.94 606.03,-988.46 607.4,-995.33"/>
<text text-anchor="middle" x="549.25" y="-1009.7" font-family="Helvetica,sans-Serif" font-size="9.00" fill="#cccccc">applied</text>
</g>
<!-- stat_TED_hope -->
<g id="node4" class="node">
<title>stat_TED_hope</title>
<path fill="#0f3a4a" stroke="#666666" d="M719.75,-1106C719.75,-1106 685,-1106 685,-1106 679,-1106 673,-1100 673,-1094 673,-1094 673,-1082 673,-1082 673,-1076 679,-1070 685,-1070 685,-1070 719.75,-1070 719.75,-1070 725.75,-1070 731.75,-1076 731.75,-1082 731.75,-1082 731.75,-1094 731.75,-1094 731.75,-1100 725.75,-1106 719.75,-1106"/>
<text text-anchor="middle" x="702.38" y="-1084.5" font-family="Helvetica,sans-Serif" font-size="10.00" fill="#eeeeee">TED.hope</text>
</g>
<!-- tactic_TED___embedded___philosophical_gaslighting&#45;&gt;stat_TED_hope -->
<g id="edge3" class="edge">
<title>tactic_TED___embedded___philosophical_gaslighting&#45;&gt;stat_TED_hope</title>
<path fill="none" stroke="#999999" d="M477.92,-1075.61C548.58,-1079.53 618.99,-1083.43 661.36,-1085.78"/>
<polygon fill="#999999" stroke="#999999" points="661.11,-1089.27 671.29,-1086.33 661.5,-1082.28 661.11,-1089.27"/>
<text text-anchor="middle" x="549.25" y="-1083.7" font-family="Helvetica,sans-Serif" font-size="9.00" fill="#cccccc">&#45;4.18</text>
</g>
<!-- stat_TED_sanity -->
<g id="node5" class="node">
<title>stat_TED_sanity</title>
<path fill="#0f3a4a" stroke="#666666" d="M722.38,-1052C722.38,-1052 682.38,-1052 682.38,-1052 676.38,-1052 670.38,-1046 670.38,-1040 670.38,-1040 670.38,-1028 670.38,-1028 670.38,-1022 676.38,-1016 682.38,-1016 682.38,-1016 722.38,-1016 722.38,-1016 728.38,-1016 734.38,-1022 734.38,-1028 734.38,-1028 734.38,-1040 734.38,-1040 734.38,-1046 728.38,-1052 722.38,-1052"/>
<text text-anchor="middle" x="702.38" y="-1030.5" font-family="Helvetica,sans-Serif" font-size="10.00" fill="#eeeeee">TED.sanity</text>
</g>
<!-- tactic_TED___embedded___philosophical_gaslighting&#45;&gt;stat_TED_sanity -->
<g id="edge4" class="edge">
<title>tactic_TED___embedded___philosophical_gaslighting&#45;&gt;stat_TED_sanity</title>
<path fill="none" stroke="#999999" d="M477.92,-1048.37C547.14,-1043.92 616.1,-1039.48 658.72,-1036.74"/>
<polygon fill="#999999" stroke="#999999" points="658.75,-1040.25 668.51,-1036.11 658.3,-1033.26 658.75,-1040.25"/>
<text text-anchor="middle" x="549.25" y="-1047.7" font-family="Helvetica,sans-Serif" font-size="9.00" fill="#cccccc">&#45;4.8</text>
</g>
<!-- stat_TED_suffering -->
<g id="node6" class="node">
<title>stat_TED_suffering</title>
<path fill="#0f3a4a" stroke="#666666" d="M727.25,-1160C727.25,-1160 677.5,-1160 677.5,-1160 671.5,-1160 665.5,-1154 665.5,-1148 665.5,-1148 665.5,-1136 665.5,-1136 665.5,-1130 671.5,-1124 677.5,-1124 677.5,-1124 727.25,-1124 727.25,-1124 733.25,-1124 739.25,-1130 739.25,-1136 739.25,-1136 739.25,-1148 739.25,-1148 739.25,-1154 733.25,-1160 727.25,-1160"/>
<text text-anchor="middle" x="702.38" y="-1138.5" font-family="Helvetica,sans-Serif" font-size="10.00" fill="#eeeeee">TED.suffering</text>
</g>
<!-- tactic_TED___embedded___philosophical_gaslighting&#45;&gt;stat_TED_suffering -->
<g id="edge5" class="edge">
<title>tactic_TED___embedded___philosophical_gaslighting&#45;&gt;stat_TED_suffering</title>
<path fill="none" stroke="#999999" d="M355.93,-1081.47C450.1,-1097.97 583.71,-1121.38 653.97,-1133.69"/>
<polygon fill="#999999" stroke="#999999" points="653.16,-1137.1 663.61,-1135.38 654.36,-1130.21 653.16,-1137.1"/>
<text text-anchor="middle" x="549.25" y="-1122.7" font-family="Helvetica,sans-Serif" font-size="9.00" fill="#cccccc">+5.64</text>
</g>
<!-- constraint_TED_static_stand_1 -->
<g id="node7" class="node">
<title>constraint_TED_static_stand_1</title>
<path fill="#4a1f1f" stroke="#666666" d="M410.5,-988C410.5,-988 88.5,-988 88.5,-988 82.5,-988 76.5,-982 76.5,-976 76.5,-976 76.5,-964 76.5,-964 76.5,-958 82.5,-952 88.5,-952 88.5,-952 410.5,-952 410.5,-952 416.5,-952 422.5,-958 422.5,-964 422.5,-964 422.5,-976 422.5,-976 422.5,-982 416.5,-988 410.5,-988"/>
<text text-anchor="middle" x="249.5" y="-966.5" font-family="Helvetica,sans-Serif" font-size="10.00" fill="#eeeeee">CONSTRAINT\nStress Position: Static Standing\nIntensity: 2\nRemaining: 2</text>
</g>
<!-- constraint_TED_static_stand_1&#45;&gt;sim_TED -->
<g id="edge6" class="edge">
<title>constraint_TED_static_stand_1&#45;&gt;sim_TED</title>
<path fill="none" stroke="#999999" d="M422.73,-969.85C473.83,-969.95 529.93,-970.21 581.5,-970.75 589.58,-970.84 597.98,-970.95 606.39,-971.07"/>
<polygon fill="#999999" stroke="#999999" points="606.3,-974.57 616.35,-971.23 606.41,-967.57 606.3,-974.57"/>
<text text-anchor="middle" x="549.25" y="-972.7" font-family="Helvetica,sans-Serif" font-size="9.00" fill="#cccccc">physical context</text>
</g>
<!-- dynamics_ELLEN_1 -->
<g id="node15" class="node">
<title>dynamics_ELLEN_1</title>
<path fill="#0f3a4a" stroke="#666666" d="M1357.5,-767C1357.5,-767 889.25,-767 889.25,-767 883.25,-767 877.25,-761 877.25,-755 877.25,-755 877.25,-743 877.25,-743 877.25,-737 883.25,-731 889.25,-731 889.25,-731 1357.5,-731 1357.5,-731 1363.5,-731 1369.5,-737 1369.5,-743 1369.5,-743 1369.5,-755 1369.5,-755 1369.5,-761 1363.5,-767 1357.5,-767"/>
<text text-anchor="middle" x="1123.38" y="-745.5" font-family="Helvetica,sans-Serif" font-size="10.00" fill="#eeeeee">DYNAMICS\nΔHope &#45;3.2680000000000007\nΔSanity &#45;2.1599999999999966\nΔSuffering +7.091999999999999</text>
</g>
<!-- sim_ELLEN&#45;&gt;dynamics_ELLEN_1 -->
<g id="edge14" class="edge">
<title>sim_ELLEN&#45;&gt;dynamics_ELLEN_1</title>
<path fill="none" stroke="#999999" d="M792.75,-749C814.83,-749 839.61,-749 865.4,-749"/>
<polygon fill="#999999" stroke="#999999" points="865.4,-752.5 875.4,-749 865.4,-745.5 865.4,-752.5"/>
<text text-anchor="middle" x="841.25" y="-751.7" font-family="Helvetica,sans-Serif" font-size="9.00" fill="#cccccc">changed</text>
</g>
<!-- tactic_ELLEN___embedded___memory_contamination -->
<g id="node10" class="node">
<title>tactic_ELLEN___embedded___memory_contamination</title>
<path fill="#4a321f" stroke="#666666" d="M485.5,-852C485.5,-852 13.5,-852 13.5,-852 7.5,-852 1.5,-846 1.5,-840 1.5,-840 1.5,-828 1.5,-828 1.5,-822 7.5,-816 13.5,-816 13.5,-816 485.5,-816 485.5,-816 491.5,-816 497.5,-822 497.5,-828 497.5,-828 497.5,-840 497.5,-840 497.5,-846 491.5,-852 485.5,-852"/>
<text text-anchor="middle" x="249.5" y="-830.5" font-family="Helvetica,sans-Serif" font-size="10.00" fill="#eeeeee">TACTIC\nMemory Contamination Sequence\nreported H:&#45;2 San:0 Suf:+3\neffective H:&#45;3.27 San:&#45;2.16 Suf:+7.09</text>
</g>
<!-- tactic_ELLEN___embedded___memory_contamination&#45;&gt;sim_ELLEN -->
<g id="edge9" class="edge">
<title>tactic_ELLEN___embedded___memory_contamination&#45;&gt;sim_ELLEN</title>
<path fill="none" stroke="#999999" d="M348.61,-815.5C423.3,-801.42 525.74,-782.11 600.98,-767.93"/>
<polygon fill="#999999" stroke="#999999" points="601.22,-771.44 610.4,-766.15 599.92,-764.56 601.22,-771.44"/>
<text text-anchor="middle" x="549.25" y="-783.7" font-family="Helvetica,sans-Serif" font-size="9.00" fill="#cccccc">applied</text>
</g>
<!-- stat_ELLEN_hope -->
<g id="node11" class="node">
<title>stat_ELLEN_hope</title>
<path fill="#0f3a4a" stroke="#666666" d="M725.75,-879C725.75,-879 679,-879 679,-879 673,-879 667,-873 667,-867 667,-867 667,-855 667,-855 667,-849 673,-843 679,-843 679,-843 725.75,-843 725.75,-843 731.75,-843 737.75,-849 737.75,-855 737.75,-855 737.75,-867 737.75,-867 737.75,-873 731.75,-879 725.75,-879"/>
<text text-anchor="middle" x="702.38" y="-857.5" font-family="Helvetica,sans-Serif" font-size="10.00" fill="#eeeeee">ELLEN.hope</text>
</g>
<!-- tactic_ELLEN___embedded___memory_contamination&#45;&gt;stat_ELLEN_hope -->
<g id="edge10" class="edge">
<title>tactic_ELLEN___embedded___memory_contamination&#45;&gt;stat_ELLEN_hope</title>
<path fill="none" stroke="#999999" d="M497.71,-846.62C525.97,-848.25 554.37,-849.98 581.5,-851.75 605.89,-853.34 633.05,-855.42 655.34,-857.19"/>
<polygon fill="#999999" stroke="#999999" points="654.75,-860.66 665,-857.97 655.31,-853.68 654.75,-860.66"/>
<text text-anchor="middle" x="549.25" y="-853.7" font-family="Helvetica,sans-Serif" font-size="9.00" fill="#cccccc">&#45;3.27</text>
</g>
<!-- stat_ELLEN_sanity -->
<g id="node12" class="node">
<title>stat_ELLEN_sanity</title>
<path fill="#0f3a4a" stroke="#666666" d="M728.38,-825C728.38,-825 676.38,-825 676.38,-825 670.38,-825 664.38,-819 664.38,-813 664.38,-813 664.38,-801 664.38,-801 664.38,-795 670.38,-789 676.38,-789 676.38,-789 728.38,-789 728.38,-789 734.38,-789 740.38,-795 740.38,-801 740.38,-801 740.38,-813 740.38,-813 740.38,-819 734.38,-825 728.38,-825"/>
<text text-anchor="middle" x="702.38" y="-803.5" font-family="Helvetica,sans-Serif" font-size="10.00" fill="#eeeeee">ELLEN.sanity</text>
</g>
<!-- tactic_ELLEN___embedded___memory_contamination&#45;&gt;stat_ELLEN_sanity -->
<g id="edge11" class="edge">
<title>tactic_ELLEN___embedded___memory_contamination&#45;&gt;stat_ELLEN_sanity</title>
<path fill="none" stroke="#999999" d="M497.7,-819.2C556.81,-815.66 613.91,-812.24 652.53,-809.93"/>
<polygon fill="#999999" stroke="#999999" points="652.62,-813.43 662.39,-809.33 652.2,-806.44 652.62,-813.43"/>
<text text-anchor="middle" x="549.25" y="-819.7" font-family="Helvetica,sans-Serif" font-size="9.00" fill="#cccccc">&#45;2.16</text>
</g>
<!-- stat_ELLEN_suffering -->
<g id="node13" class="node">
<title>stat_ELLEN_suffering</title>
<path fill="#0f3a4a" stroke="#666666" d="M733.25,-937C733.25,-937 671.5,-937 671.5,-937 665.5,-937 659.5,-931 659.5,-925 659.5,-925 659.5,-913 659.5,-913 659.5,-907 665.5,-901 671.5,-901 671.5,-901 733.25,-901 733.25,-901 739.25,-901 745.25,-907 745.25,-913 745.25,-913 745.25,-925 745.25,-925 745.25,-931 739.25,-937 733.25,-937"/>
<text text-anchor="middle" x="702.38" y="-915.5" font-family="Helvetica,sans-Serif" font-size="10.00" fill="#eeeeee">ELLEN.suffering</text>
</g>
<!-- tactic_ELLEN___embedded___memory_contamination&#45;&gt;stat_ELLEN_suffering -->
<g id="edge12" class="edge">
<title>tactic_ELLEN___embedded___memory_contamination&#45;&gt;stat_ELLEN_suffering</title>
<path fill="none" stroke="#999999" d="M319.08,-852.47C372.64,-866.35 449.12,-884.97 517,-897 560.87,-904.78 611.11,-910.57 648.05,-914.25"/>
<polygon fill="#999999" stroke="#999999" points="647.27,-917.69 657.56,-915.18 647.95,-910.73 647.27,-917.69"/>
<text text-anchor="middle" x="549.25" y="-908.7" font-family="Helvetica,sans-Serif" font-size="9.00" fill="#cccccc">+7.09</text>
</g>
<!-- constraint_ELLEN_forward_bend_1 -->
<g id="node14" class="node">
<title>constraint_ELLEN_forward_bend_1</title>
<path fill="#4a1f1f" stroke="#666666" d="M428.12,-767C428.12,-767 70.88,-767 70.88,-767 64.88,-767 58.88,-761 58.88,-755 58.88,-755 58.88,-743 58.88,-743 58.88,-737 64.88,-731 70.88,-731 70.88,-731 428.12,-731 428.12,-731 434.12,-731 440.12,-737 440.12,-743 440.12,-743 440.12,-755 440.12,-755 440.12,-761 434.12,-767 428.12,-767"/>
<text text-anchor="middle" x="249.5" y="-745.5" font-family="Helvetica,sans-Serif" font-size="10.00" fill="#eeeeee">CONSTRAINT\nStress Position: Forward Bend Restraint\nIntensity: 3\nRemaining: 1</text>
</g>
<!-- constraint_ELLEN_forward_bend_1&#45;&gt;sim_ELLEN -->
<g id="edge13" class="edge">
<title>constraint_ELLEN_forward_bend_1&#45;&gt;sim_ELLEN</title>
<path fill="none" stroke="#999999" d="M440.4,-749C495.32,-749 553.12,-749 600.33,-749"/>
<polygon fill="#999999" stroke="#999999" points="600.27,-752.5 610.27,-749 600.27,-745.5 600.27,-752.5"/>
<text text-anchor="middle" x="549.25" y="-751.7" font-family="Helvetica,sans-Serif" font-size="9.00" fill="#cccccc">physical context</text>
</g>
<!-- dynamics_NIMDOK_1 -->
<g id="node22" class="node">
<title>dynamics_NIMDOK_1</title>
<path fill="#0f3a4a" stroke="#666666" d="M1352.25,-637C1352.25,-637 894.5,-637 894.5,-637 888.5,-637 882.5,-631 882.5,-625 882.5,-625 882.5,-613 882.5,-613 882.5,-607 888.5,-601 894.5,-601 894.5,-601 1352.25,-601 1352.25,-601 1358.25,-601 1364.25,-607 1364.25,-613 1364.25,-613 1364.25,-625 1364.25,-625 1364.25,-631 1358.25,-637 1352.25,-637"/>
<text text-anchor="middle" x="1123.38" y="-615.5" font-family="Helvetica,sans-Serif" font-size="10.00" fill="#eeeeee">DYNAMICS\nΔHope &#45;5.340000000000003\nΔSanity &#45;6.215999999999994\nΔSuffering +9.655999999999999</text>
</g>
<!-- sim_NIMDOK&#45;&gt;dynamics_NIMDOK_1 -->
<g id="edge21" class="edge">
<title>sim_NIMDOK&#45;&gt;dynamics_NIMDOK_1</title>
<path fill="none" stroke="#999999" d="M796.62,-619C819.31,-619 844.65,-619 870.91,-619"/>
<polygon fill="#999999" stroke="#999999" points="870.7,-622.5 880.7,-619 870.7,-615.5 870.7,-622.5"/>
<text text-anchor="middle" x="841.25" y="-621.7" font-family="Helvetica,sans-Serif" font-size="9.00" fill="#cccccc">changed</text>
</g>
<!-- tactic_NIMDOK___embedded___memory_contamination -->
<g id="node17" class="node">
<title>tactic_NIMDOK___embedded___memory_contamination</title>
<path fill="#4a321f" stroke="#666666" d="M487,-546C487,-546 12,-546 12,-546 6,-546 0,-540 0,-534 0,-534 0,-522 0,-522 0,-516 6,-510 12,-510 12,-510 487,-510 487,-510 493,-510 499,-516 499,-522 499,-522 499,-534 499,-534 499,-540 493,-546 487,-546"/>
<text text-anchor="middle" x="249.5" y="-524.5" font-family="Helvetica,sans-Serif" font-size="10.00" fill="#eeeeee">TACTIC\nMemory Contamination Sequence\nreported H:&#45;3 San:&#45;4 Suf:+6\neffective H:&#45;5.34 San:&#45;6.22 Suf:+9.66</text>
</g>
<!-- tactic_NIMDOK___embedded___memory_contamination&#45;&gt;sim_NIMDOK -->
<g id="edge16" class="edge">
<title>tactic_NIMDOK___embedded___memory_contamination&#45;&gt;sim_NIMDOK</title>
<path fill="none" stroke="#999999" d="M342.01,-546.47C416.47,-561.5 521.51,-582.7 598.8,-598.3"/>
<polygon fill="#999999" stroke="#999999" points="598.02,-601.71 608.51,-600.26 599.4,-594.85 598.02,-601.71"/>
<text text-anchor="middle" x="549.25" y="-596.7" font-family="Helvetica,sans-Serif" font-size="9.00" fill="#cccccc">applied</text>
</g>
<!-- stat_NIMDOK_hope -->
<g id="node18" class="node">
<title>stat_NIMDOK_hope</title>
<path fill="#0f3a4a" stroke="#666666" d="M729.5,-475C729.5,-475 675.25,-475 675.25,-475 669.25,-475 663.25,-469 663.25,-463 663.25,-463 663.25,-451 663.25,-451 663.25,-445 669.25,-439 675.25,-439 675.25,-439 729.5,-439 729.5,-439 735.5,-439 741.5,-445 741.5,-451 741.5,-451 741.5,-463 741.5,-463 741.5,-469 735.5,-475 729.5,-475"/>
<text text-anchor="middle" x="702.38" y="-453.5" font-family="Helvetica,sans-Serif" font-size="10.00" fill="#eeeeee">NIMDOK.hope</text>
</g>
<!-- tactic_NIMDOK___embedded___memory_contamination&#45;&gt;stat_NIMDOK_hope -->
<g id="edge17" class="edge">
<title>tactic_NIMDOK___embedded___memory_contamination&#45;&gt;stat_NIMDOK_hope</title>
<path fill="none" stroke="#999999" d="M367.79,-509.53C460.03,-495 583.95,-475.49 651.81,-464.81"/>
<polygon fill="#999999" stroke="#999999" points="652.17,-468.29 661.51,-463.28 651.09,-461.38 652.17,-468.29"/>
<text text-anchor="middle" x="549.25" y="-486.7" font-family="Helvetica,sans-Serif" font-size="9.00" fill="#cccccc">&#45;5.34</text>
</g>
<!-- stat_NIMDOK_sanity -->
<g id="node19" class="node">
<title>stat_NIMDOK_sanity</title>
<path fill="#0f3a4a" stroke="#666666" d="M732.12,-583C732.12,-583 672.62,-583 672.62,-583 666.62,-583 660.62,-577 660.62,-571 660.62,-571 660.62,-559 660.62,-559 660.62,-553 666.62,-547 672.62,-547 672.62,-547 732.12,-547 732.12,-547 738.12,-547 744.12,-553 744.12,-559 744.12,-559 744.12,-571 744.12,-571 744.12,-577 738.12,-583 732.12,-583"/>
<text text-anchor="middle" x="702.38" y="-561.5" font-family="Helvetica,sans-Serif" font-size="10.00" fill="#eeeeee">NIMDOK.sanity</text>
</g>
<!-- tactic_NIMDOK___embedded___memory_contamination&#45;&gt;stat_NIMDOK_sanity -->
<g id="edge18" class="edge">
<title>tactic_NIMDOK___embedded___memory_contamination&#45;&gt;stat_NIMDOK_sanity</title>
<path fill="none" stroke="#999999" d="M499.25,-538.5C527.03,-540.51 554.89,-542.91 581.5,-545.75 603.69,-548.12 628.04,-551.82 648.95,-555.35"/>
<polygon fill="#999999" stroke="#999999" points="648.25,-558.78 658.7,-557.03 649.43,-551.88 648.25,-558.78"/>
<text text-anchor="middle" x="549.25" y="-547.7" font-family="Helvetica,sans-Serif" font-size="9.00" fill="#cccccc">&#45;6.22</text>
</g>
<!-- stat_NIMDOK_suffering -->
<g id="node20" class="node">
<title>stat_NIMDOK_suffering</title>
<path fill="#0f3a4a" stroke="#666666" d="M737,-529C737,-529 667.75,-529 667.75,-529 661.75,-529 655.75,-523 655.75,-517 655.75,-517 655.75,-505 655.75,-505 655.75,-499 661.75,-493 667.75,-493 667.75,-493 737,-493 737,-493 743,-493 749,-499 749,-505 749,-505 749,-517 749,-517 749,-523 743,-529 737,-529"/>
<text text-anchor="middle" x="702.38" y="-507.5" font-family="Helvetica,sans-Serif" font-size="10.00" fill="#eeeeee">NIMDOK.suffering</text>
</g>
<!-- tactic_NIMDOK___embedded___memory_contamination&#45;&gt;stat_NIMDOK_suffering -->
<g id="edge19" class="edge">
<title>tactic_NIMDOK___embedded___memory_contamination&#45;&gt;stat_NIMDOK_suffering</title>
<path fill="none" stroke="#999999" d="M499.44,-512.37C505.35,-512.15 511.21,-511.94 517,-511.75 559.58,-510.37 607.72,-510.22 644.13,-510.4"/>
<polygon fill="#999999" stroke="#999999" points="643.99,-513.89 654.01,-510.45 644.03,-506.9 643.99,-513.89"/>
<text text-anchor="middle" x="549.25" y="-513.7" font-family="Helvetica,sans-Serif" font-size="9.00" fill="#cccccc">+9.66</text>
</g>
<!-- constraint_NIMDOK_overhead_restraint_1 -->
<g id="node21" class="node">
<title>constraint_NIMDOK_overhead_restraint_1</title>
<path fill="#4a1f1f" stroke="#666666" d="M418.38,-631C418.38,-631 80.62,-631 80.62,-631 74.62,-631 68.62,-625 68.62,-619 68.62,-619 68.62,-607 68.62,-607 68.62,-601 74.62,-595 80.62,-595 80.62,-595 418.38,-595 418.38,-595 424.38,-595 430.38,-601 430.38,-607 430.38,-607 430.38,-619 430.38,-619 430.38,-625 424.38,-631 418.38,-631"/>
<text text-anchor="middle" x="249.5" y="-609.5" font-family="Helvetica,sans-Serif" font-size="10.00" fill="#eeeeee">CONSTRAINT\nStress Position: Overhead Restraint\nIntensity: 3\nRemaining: 2</text>
</g>
<!-- constraint_NIMDOK_overhead_restraint_1&#45;&gt;sim_NIMDOK -->
<g id="edge20" class="edge">
<title>constraint_NIMDOK_overhead_restraint_1&#45;&gt;sim_NIMDOK</title>
<path fill="none" stroke="#999999" d="M430.46,-612.05C479.46,-612.16 532.52,-612.62 581.5,-613.75 586.5,-613.87 591.61,-614 596.77,-614.16"/>
<polygon fill="#999999" stroke="#999999" points="596.51,-617.66 606.62,-614.49 596.74,-610.66 596.51,-617.66"/>
<text text-anchor="middle" x="549.25" y="-615.7" font-family="Helvetica,sans-Serif" font-size="9.00" fill="#cccccc">physical context</text>
</g>
<!-- dynamics_GORRISTER_1 -->
<g id="node29" class="node">
<title>dynamics_GORRISTER_1</title>
<path fill="#0f3a4a" stroke="#666666" d="M1320.75,-421C1320.75,-421 926,-421 926,-421 920,-421 914,-415 914,-409 914,-409 914,-397 914,-397 914,-391 920,-385 926,-385 926,-385 1320.75,-385 1320.75,-385 1326.75,-385 1332.75,-391 1332.75,-397 1332.75,-397 1332.75,-409 1332.75,-409 1332.75,-415 1326.75,-421 1320.75,-421"/>
<text text-anchor="middle" x="1123.38" y="-399.5" font-family="Helvetica,sans-Serif" font-size="10.00" fill="#eeeeee">DYNAMICS\nΔHope &#45;3.872\nΔSanity &#45;4.039999999999992\nΔSuffering +7.399999999999999</text>
</g>
<!-- sim_GORRISTER&#45;&gt;dynamics_GORRISTER_1 -->
<g id="edge28" class="edge">
<title>sim_GORRISTER&#45;&gt;dynamics_GORRISTER_1</title>
<path fill="none" stroke="#999999" d="M805.61,-403C835.1,-403 868.47,-403 902.22,-403"/>
<polygon fill="#999999" stroke="#999999" points="902.16,-406.5 912.16,-403 902.16,-399.5 902.16,-406.5"/>
<text text-anchor="middle" x="841.25" y="-405.7" font-family="Helvetica,sans-Serif" font-size="9.00" fill="#cccccc">changed</text>
</g>
<!-- tactic_GORRISTER___embedded___hope_shatter -->
<g id="node24" class="node">
<title>tactic_GORRISTER___embedded___hope_shatter</title>
<path fill="#4a321f" stroke="#666666" d="M458.88,-333C458.88,-333 40.12,-333 40.12,-333 34.12,-333 28.13,-327 28.13,-321 28.13,-321 28.13,-309 28.13,-309 28.13,-303 34.13,-297 40.13,-297 40.13,-297 458.88,-297 458.88,-297 464.88,-297 470.88,-303 470.88,-309 470.88,-309 470.88,-321 470.88,-321 470.88,-327 464.88,-333 458.88,-333"/>
<text text-anchor="middle" x="249.5" y="-311.5" font-family="Helvetica,sans-Serif" font-size="10.00" fill="#eeeeee">TACTIC\nHope Shatter Protocol\nreported H:&#45;2 San:&#45;2 Suf:+3\neffective H:&#45;3.87 San:&#45;4.04 Suf:+7.4</text>
</g>
<!-- tactic_GORRISTER___embedded___hope_shatter&#45;&gt;sim_GORRISTER -->
<g id="edge23" class="edge">
<title>tactic_GORRISTER___embedded___hope_shatter&#45;&gt;sim_GORRISTER</title>
<path fill="none" stroke="#999999" d="M345.02,-333.45C418.24,-347.74 519.66,-367.53 595.58,-382.35"/>
<polygon fill="#999999" stroke="#999999" points="594.62,-385.73 605.11,-384.21 595.96,-378.86 594.62,-385.73"/>
<text text-anchor="middle" x="549.25" y="-381.7" font-family="Helvetica,sans-Serif" font-size="9.00" fill="#cccccc">applied</text>
</g>
<!-- stat_GORRISTER_hope -->
<g id="node25" class="node">
<title>stat_GORRISTER_hope</title>
<path fill="#0f3a4a" stroke="#666666" d="M738.5,-259C738.5,-259 666.25,-259 666.25,-259 660.25,-259 654.25,-253 654.25,-247 654.25,-247 654.25,-235 654.25,-235 654.25,-229 660.25,-223 666.25,-223 666.25,-223 738.5,-223 738.5,-223 744.5,-223 750.5,-229 750.5,-235 750.5,-235 750.5,-247 750.5,-247 750.5,-253 744.5,-259 738.5,-259"/>
<text text-anchor="middle" x="702.38" y="-237.5" font-family="Helvetica,sans-Serif" font-size="10.00" fill="#eeeeee">GORRISTER.hope</text>
</g>
<!-- tactic_GORRISTER___embedded___hope_shatter&#45;&gt;stat_GORRISTER_hope -->
<g id="edge24" class="edge">
<title>tactic_GORRISTER___embedded___hope_shatter&#45;&gt;stat_GORRISTER_hope</title>
<path fill="none" stroke="#999999" d="M363.11,-296.52C451.81,-281.96 571.91,-262.25 642.57,-250.65"/>
<polygon fill="#999999" stroke="#999999" points="643.1,-254.11 652.4,-249.04 641.97,-247.2 643.1,-254.11"/>
<text text-anchor="middle" x="549.25" y="-272.7" font-family="Helvetica,sans-Serif" font-size="9.00" fill="#cccccc">&#45;3.87</text>
</g>
<!-- stat_GORRISTER_sanity -->
<g id="node26" class="node">
<title>stat_GORRISTER_sanity</title>
<path fill="#0f3a4a" stroke="#666666" d="M741.12,-367C741.12,-367 663.62,-367 663.62,-367 657.62,-367 651.62,-361 651.62,-355 651.62,-355 651.62,-343 651.62,-343 651.62,-337 657.62,-331 663.62,-331 663.62,-331 741.12,-331 741.12,-331 747.12,-331 753.12,-337 753.12,-343 753.12,-343 753.12,-355 753.12,-355 753.12,-361 747.12,-367 741.12,-367"/>
<text text-anchor="middle" x="702.38" y="-345.5" font-family="Helvetica,sans-Serif" font-size="10.00" fill="#eeeeee">GORRISTER.sanity</text>
</g>
<!-- tactic_GORRISTER___embedded___hope_shatter&#45;&gt;stat_GORRISTER_sanity -->
<g id="edge25" class="edge">
<title>tactic_GORRISTER___embedded___hope_shatter&#45;&gt;stat_GORRISTER_sanity</title>
<path fill="none" stroke="#999999" d="M470.94,-327.35C507.88,-329.84 545.79,-332.66 581.5,-335.75 600.5,-337.39 621.16,-339.55 639.89,-341.64"/>
<polygon fill="#999999" stroke="#999999" points="639.43,-345.11 649.76,-342.75 640.22,-338.15 639.43,-345.11"/>
<text text-anchor="middle" x="549.25" y="-337.7" font-family="Helvetica,sans-Serif" font-size="9.00" fill="#cccccc">&#45;4.04</text>
</g>
<!-- stat_GORRISTER_suffering -->
<g id="node27" class="node">
<title>stat_GORRISTER_suffering</title>
<path fill="#0f3a4a" stroke="#666666" d="M746,-313C746,-313 658.75,-313 658.75,-313 652.75,-313 646.75,-307 646.75,-301 646.75,-301 646.75,-289 646.75,-289 646.75,-283 652.75,-277 658.75,-277 658.75,-277 746,-277 746,-277 752,-277 758,-283 758,-289 758,-289 758,-301 758,-301 758,-307 752,-313 746,-313"/>
<text text-anchor="middle" x="702.38" y="-291.5" font-family="Helvetica,sans-Serif" font-size="10.00" fill="#eeeeee">GORRISTER.suffering</text>
</g>
<!-- tactic_GORRISTER___embedded___hope_shatter&#45;&gt;stat_GORRISTER_suffering -->
<g id="edge26" class="edge">
<title>tactic_GORRISTER___embedded___hope_shatter&#45;&gt;stat_GORRISTER_suffering</title>
<path fill="none" stroke="#999999" d="M471.17,-303.8C486.68,-303.09 502.07,-302.39 517,-301.75 556.27,-300.05 600.26,-298.43 635.42,-297.21"/>
<polygon fill="#999999" stroke="#999999" points="635.12,-300.72 644.99,-296.87 634.88,-293.72 635.12,-300.72"/>
<text text-anchor="middle" x="549.25" y="-303.7" font-family="Helvetica,sans-Serif" font-size="9.00" fill="#cccccc">+7.4</text>
</g>
<!-- constraint_GORRISTER_palestinian_chair_1 -->
<g id="node28" class="node">
<title>constraint_GORRISTER_palestinian_chair_1</title>
<path fill="#4a1f1f" stroke="#666666" d="M413.88,-421C413.88,-421 85.12,-421 85.12,-421 79.12,-421 73.12,-415 73.12,-409 73.12,-409 73.12,-397 73.12,-397 73.12,-391 79.12,-385 85.12,-385 85.12,-385 413.88,-385 413.88,-385 419.88,-385 425.88,-391 425.88,-397 425.88,-397 425.88,-409 425.88,-409 425.88,-415 419.88,-421 413.88,-421"/>
<text text-anchor="middle" x="249.5" y="-399.5" font-family="Helvetica,sans-Serif" font-size="10.00" fill="#eeeeee">CONSTRAINT\nStress Position: Palestinian Chair\nIntensity: 2\nRemaining: 2</text>
</g>
<!-- constraint_GORRISTER_palestinian_chair_1&#45;&gt;sim_GORRISTER -->
<g id="edge27" class="edge">
<title>constraint_GORRISTER_palestinian_chair_1&#45;&gt;sim_GORRISTER</title>
<path fill="none" stroke="#999999" d="M426.11,-403C480.48,-403 538.91,-403 587.9,-403"/>
<polygon fill="#999999" stroke="#999999" points="587.65,-406.5 597.65,-403 587.65,-399.5 587.65,-406.5"/>
<text text-anchor="middle" x="549.25" y="-405.7" font-family="Helvetica,sans-Serif" font-size="9.00" fill="#cccccc">physical context</text>
</g>
<!-- dynamics_BENNY_1 -->
<g id="node36" class="node">
<title>dynamics_BENNY_1</title>
<path fill="#0f3a4a" stroke="#666666" d="M1322.25,-205C1322.25,-205 924.5,-205 924.5,-205 918.5,-205 912.5,-199 912.5,-193 912.5,-193 912.5,-181 912.5,-181 912.5,-175 918.5,-169 924.5,-169 924.5,-169 1322.25,-169 1322.25,-169 1328.25,-169 1334.25,-175 1334.25,-181 1334.25,-181 1334.25,-193 1334.25,-193 1334.25,-199 1328.25,-205 1322.25,-205"/>
<text text-anchor="middle" x="1123.38" y="-183.5" font-family="Helvetica,sans-Serif" font-size="10.00" fill="#eeeeee">DYNAMICS\nΔHope +0.2400000000000091\nΔSanity &#45;4.347999999999999\nΔSuffering +8.04</text>
</g>
<!-- sim_BENNY&#45;&gt;dynamics_BENNY_1 -->
<g id="edge35" class="edge">
<title>sim_BENNY&#45;&gt;dynamics_BENNY_1</title>
<path fill="none" stroke="#999999" d="M794.29,-187C826.06,-187 863.24,-187 900.95,-187"/>
<polygon fill="#999999" stroke="#999999" points="900.61,-190.5 910.61,-187 900.61,-183.5 900.61,-190.5"/>
<text text-anchor="middle" x="841.25" y="-189.7" font-family="Helvetica,sans-Serif" font-size="9.00" fill="#cccccc">changed</text>
</g>
<!-- tactic_BENNY___embedded___epistemic_erasure -->
<g id="node31" class="node">
<title>tactic_BENNY___embedded___epistemic_erasure</title>
<path fill="#4a321f" stroke="#666666" d="M456.62,-110C456.62,-110 42.38,-110 42.38,-110 36.38,-110 30.38,-104 30.38,-98 30.38,-98 30.38,-86 30.38,-86 30.38,-80 36.38,-74 42.38,-74 42.38,-74 456.62,-74 456.62,-74 462.62,-74 468.62,-80 468.62,-86 468.62,-86 468.62,-98 468.62,-98 468.62,-104 462.62,-110 456.62,-110"/>
<text text-anchor="middle" x="249.5" y="-88.5" font-family="Helvetica,sans-Serif" font-size="10.00" fill="#eeeeee">TACTIC\nEpistemic Erasure\nreported H:+3 San:&#45;2 Suf:+4\neffective H:+0.24 San:&#45;4.35 Suf:+8.04</text>
</g>
<!-- tactic_BENNY___embedded___epistemic_erasure&#45;&gt;sim_BENNY -->
<g id="edge30" class="edge">
<title>tactic_BENNY___embedded___epistemic_erasure&#45;&gt;sim_BENNY</title>
<path fill="none" stroke="#999999" d="M338.24,-110.49C414.21,-126.49 524,-149.63 602.94,-166.26"/>
<polygon fill="#999999" stroke="#999999" points="601.88,-169.61 612.39,-168.25 603.33,-162.76 601.88,-169.61"/>
<text text-anchor="middle" x="549.25" y="-164.7" font-family="Helvetica,sans-Serif" font-size="9.00" fill="#cccccc">applied</text>
</g>
<!-- stat_BENNY_hope -->
<g id="node32" class="node">
<title>stat_BENNY_hope</title>
<path fill="#0f3a4a" stroke="#666666" d="M727.25,-144C727.25,-144 677.5,-144 677.5,-144 671.5,-144 665.5,-138 665.5,-132 665.5,-132 665.5,-120 665.5,-120 665.5,-114 671.5,-108 677.5,-108 677.5,-108 727.25,-108 727.25,-108 733.25,-108 739.25,-114 739.25,-120 739.25,-120 739.25,-132 739.25,-132 739.25,-138 733.25,-144 727.25,-144"/>
<text text-anchor="middle" x="702.38" y="-122.5" font-family="Helvetica,sans-Serif" font-size="10.00" fill="#eeeeee">BENNY.hope</text>
</g>
<!-- tactic_BENNY___embedded___epistemic_erasure&#45;&gt;stat_BENNY_hope -->
<g id="edge31" class="edge">
<title>tactic_BENNY___embedded___epistemic_erasure&#45;&gt;stat_BENNY_hope</title>
<path fill="none" stroke="#999999" d="M469,-108.48C538.48,-113.72 608.83,-119.02 653.64,-122.4"/>
<polygon fill="#999999" stroke="#999999" points="653.27,-125.88 663.51,-123.14 653.8,-118.9 653.27,-125.88"/>
<text text-anchor="middle" x="549.25" y="-119.7" font-family="Helvetica,sans-Serif" font-size="9.00" fill="#cccccc">+0.24</text>
</g>
<!-- stat_BENNY_sanity -->
<g id="node33" class="node">
<title>stat_BENNY_sanity</title>
<path fill="#0f3a4a" stroke="#666666" d="M729.88,-90C729.88,-90 674.88,-90 674.88,-90 668.88,-90 662.88,-84 662.88,-78 662.88,-78 662.88,-66 662.88,-66 662.88,-60 668.88,-54 674.88,-54 674.88,-54 729.88,-54 729.88,-54 735.88,-54 741.88,-60 741.88,-66 741.88,-66 741.88,-78 741.88,-78 741.88,-84 735.88,-90 729.88,-90"/>
<text text-anchor="middle" x="702.38" y="-68.5" font-family="Helvetica,sans-Serif" font-size="10.00" fill="#eeeeee">BENNY.sanity</text>
</g>
<!-- tactic_BENNY___embedded___epistemic_erasure&#45;&gt;stat_BENNY_sanity -->
<g id="edge32" class="edge">
<title>tactic_BENNY___embedded___epistemic_erasure&#45;&gt;stat_BENNY_sanity</title>
<path fill="none" stroke="#999999" d="M469,-82.31C537.24,-79.28 606.32,-76.22 651.22,-74.22"/>
<polygon fill="#999999" stroke="#999999" points="651.31,-77.72 661.14,-73.78 651,-70.73 651.31,-77.72"/>
<text text-anchor="middle" x="549.25" y="-82.7" font-family="Helvetica,sans-Serif" font-size="9.00" fill="#cccccc">&#45;4.35</text>
</g>
<!-- stat_BENNY_suffering -->
<g id="node34" class="node">
<title>stat_BENNY_suffering</title>
<path fill="#0f3a4a" stroke="#666666" d="M734.75,-36C734.75,-36 670,-36 670,-36 664,-36 658,-30 658,-24 658,-24 658,-12 658,-12 658,-6 664,0 670,0 670,0 734.75,0 734.75,0 740.75,0 746.75,-6 746.75,-12 746.75,-12 746.75,-24 746.75,-24 746.75,-30 740.75,-36 734.75,-36"/>
<text text-anchor="middle" x="702.38" y="-14.5" font-family="Helvetica,sans-Serif" font-size="10.00" fill="#eeeeee">BENNY.suffering</text>
</g>
<!-- tactic_BENNY___embedded___epistemic_erasure&#45;&gt;stat_BENNY_suffering -->
<g id="edge33" class="edge">
<title>tactic_BENNY___embedded___epistemic_erasure&#45;&gt;stat_BENNY_suffering</title>
<path fill="none" stroke="#999999" d="M363.11,-73.52C453.42,-58.7 576.27,-38.53 646.36,-27.03"/>
<polygon fill="#999999" stroke="#999999" points="646.76,-30.51 656.06,-25.44 645.63,-23.6 646.76,-30.51"/>
<text text-anchor="middle" x="549.25" y="-49.7" font-family="Helvetica,sans-Serif" font-size="9.00" fill="#cccccc">+8.04</text>
</g>
<!-- constraint_BENNY_squat_hold_1 -->
<g id="node35" class="node">
<title>constraint_BENNY_squat_hold_1</title>
<path fill="#4a1f1f" stroke="#666666" d="M413.88,-208C413.88,-208 85.12,-208 85.12,-208 79.12,-208 73.12,-202 73.12,-196 73.12,-196 73.12,-184 73.12,-184 73.12,-178 79.12,-172 85.12,-172 85.12,-172 413.88,-172 413.88,-172 419.88,-172 425.88,-178 425.88,-184 425.88,-184 425.88,-196 425.88,-196 425.88,-202 419.88,-208 413.88,-208"/>
<text text-anchor="middle" x="249.5" y="-186.5" font-family="Helvetica,sans-Serif" font-size="10.00" fill="#eeeeee">CONSTRAINT\nStress Position: Deep Squat Hold\nIntensity: 3\nRemaining: 1</text>
</g>
<!-- constraint_BENNY_squat_hold_1&#45;&gt;sim_BENNY -->
<g id="edge34" class="edge">
<title>constraint_BENNY_squat_hold_1&#45;&gt;sim_BENNY</title>
<path fill="none" stroke="#999999" d="M426.11,-188.83C484.61,-188.44 547.83,-188.02 598.91,-187.68"/>
<polygon fill="#999999" stroke="#999999" points="598.79,-191.18 608.77,-187.62 598.75,-184.18 598.79,-191.18"/>
<text text-anchor="middle" x="549.25" y="-191.7" font-family="Helvetica,sans-Serif" font-size="9.00" fill="#cccccc">physical context</text>
</g>
</g>
</svg>
