<?xml version="1.0" encoding="UTF-8" standalone="no"?>
<!DOCTYPE svg PUBLIC "-//W3C//DTD SVG 1.1//EN"
 "http://www.w3.org/Graphics/SVG/1.1/DTD/svg11.dtd">
<!-- Generated by graphviz version 9.0.0 (20230911.1827)
 -->
<!-- Title: EvidenceGraph Pages: 1 -->
<svg width="1350pt" height="1227pt"
 viewBox="0.00 0.00 1349.75 1227.00" xmlns="http://www.w3.org/2000/svg" xmlns:xlink="http://www.w3.org/1999/xlink">
<g id="graph0" class="graph" transform="scale(1 1) rotate(0) translate(4 1223)">
<title>EvidenceGraph</title>
<polygon fill="#111111" stroke="none" points="-4,4 -4,-1223 1345.75,-1223 1345.75,4 -4,4"/>
<!-- run -->
<g id="node1" class="node">
<title>run</title>
<path fill="#333333" stroke="#666666" d="M388.38,-772C388.38,-772 74.62,-772 74.62,-772 68.62,-772 62.62,-766 62.62,-760 62.62,-760 62.62,-748 62.62,-748 62.62,-742 68.62,-736 74.62,-736 74.62,-736 388.38,-736 388.38,-736 394.38,-736 400.38,-742 400.38,-748 400.38,-748 400.38,-760 400.38,-760 400.38,-766 394.38,-772 388.38,-772"/>
<text text-anchor="middle" x="231.5" y="-750.5" font-family="Helvetica,sans-Serif" font-size="10.00" fill="#eeeeee">AM Run\nCycle: 2\nam_run_1781492463740_cycle2_1781494734961.json</text>
</g>
<!-- sim_TED -->
<g id="node2" class="node">
<title>sim_TED</title>
<path fill="#1f2937" stroke="#666666" d="M738.5,-1212C738.5,-1212 594.25,-1212 594.25,-1212 588.25,-1212 582.25,-1206 582.25,-1200 582.25,-1200 582.25,-1188 582.25,-1188 582.25,-1182 588.25,-1176 594.25,-1176 594.25,-1176 738.5,-1176 738.5,-1176 744.5,-1176 750.5,-1182 750.5,-1188 750.5,-1188 750.5,-1200 750.5,-1200 750.5,-1206 744.5,-1212 738.5,-1212"/>
<text text-anchor="middle" x="666.38" y="-1190.5" font-family="Helvetica,sans-Serif" font-size="10.00" fill="#eeeeee">TED\nSuf:22.3 Hope:72.6 San:84.4</text>
</g>
<!-- run&#45;&gt;sim_TED -->
<g id="edge1" class="edge">
<title>run&#45;&gt;sim_TED</title>
<path fill="none" stroke="#999999" d="M333.13,-772.43C421.93,-789.15 538.41,-812.44 545.5,-820.75 595.51,-879.37 514.94,-1107.18 563.5,-1167 566.2,-1170.32 569.25,-1173.26 572.57,-1175.86"/>
<polygon fill="#999999" stroke="#999999" points="570.38,-1178.61 580.67,-1181.15 574.21,-1172.75 570.38,-1178.61"/>
<text text-anchor="middle" x="513.25" y="-822.7" font-family="Helvetica,sans-Serif" font-size="9.00" fill="#cccccc">agent</text>
</g>
<!-- sim_ELLEN -->
<g id="node9" class="node">
<title>sim_ELLEN</title>
<path fill="#1f2937" stroke="#666666" d="M744.5,-820C744.5,-820 588.25,-820 588.25,-820 582.25,-820 576.25,-814 576.25,-808 576.25,-808 576.25,-796 576.25,-796 576.25,-790 582.25,-784 588.25,-784 588.25,-784 744.5,-784 744.5,-784 750.5,-784 756.5,-790 756.5,-796 756.5,-796 756.5,-808 756.5,-808 756.5,-814 750.5,-820 744.5,-820"/>
<text text-anchor="middle" x="666.38" y="-798.5" font-family="Helvetica,sans-Serif" font-size="10.00" fill="#eeeeee">ELLEN\nSuf:33.3 Hope:64.9 San:77.8</text>
</g>
<!-- run&#45;&gt;sim_ELLEN -->
<g id="edge8" class="edge">
<title>run&#45;&gt;sim_ELLEN</title>
<path fill="none" stroke="#999999" d="M399.24,-772.49C455.03,-778.68 515.48,-785.38 564.65,-790.83"/>
<polygon fill="#999999" stroke="#999999" points="564.1,-794.29 574.42,-791.91 564.87,-787.33 564.1,-794.29"/>
<text text-anchor="middle" x="513.25" y="-789.7" font-family="Helvetica,sans-Serif" font-size="9.00" fill="#cccccc">agent</text>
</g>
<!-- sim_NIMDOK -->
<g id="node15" class="node">
<title>sim_NIMDOK</title>
<path fill="#1f2937" stroke="#666666" d="M748.25,-659C748.25,-659 584.5,-659 584.5,-659 578.5,-659 572.5,-653 572.5,-647 572.5,-647 572.5,-635 572.5,-635 572.5,-629 578.5,-623 584.5,-623 584.5,-623 748.25,-623 748.25,-623 754.25,-623 760.25,-629 760.25,-635 760.25,-635 760.25,-647 760.25,-647 760.25,-653 754.25,-659 748.25,-659"/>
<text text-anchor="middle" x="666.38" y="-637.5" font-family="Helvetica,sans-Serif" font-size="10.00" fill="#eeeeee">NIMDOK\nSuf:38.4 Hope:55.7 San:70.3</text>
</g>
<!-- run&#45;&gt;sim_NIMDOK -->
<g id="edge14" class="edge">
<title>run&#45;&gt;sim_NIMDOK</title>
<path fill="none" stroke="#999999" d="M400.78,-759.89C448.75,-756.88 500.25,-749.02 545.5,-732 582.58,-718.05 617.79,-688.7 640.34,-667.09"/>
<polygon fill="#999999" stroke="#999999" points="642.57,-669.8 647.26,-660.29 637.67,-664.8 642.57,-669.8"/>
<text text-anchor="middle" x="513.25" y="-750.7" font-family="Helvetica,sans-Serif" font-size="9.00" fill="#cccccc">agent</text>
</g>
<!-- sim_GORRISTER -->
<g id="node23" class="node">
<title>sim_GORRISTER</title>
<path fill="#1f2937" stroke="#666666" d="M757.25,-367C757.25,-367 575.5,-367 575.5,-367 569.5,-367 563.5,-361 563.5,-355 563.5,-355 563.5,-343 563.5,-343 563.5,-337 569.5,-331 575.5,-331 575.5,-331 757.25,-331 757.25,-331 763.25,-331 769.25,-337 769.25,-343 769.25,-343 769.25,-355 769.25,-355 769.25,-361 763.25,-367 757.25,-367"/>
<text text-anchor="middle" x="666.38" y="-345.5" font-family="Helvetica,sans-Serif" font-size="10.00" fill="#eeeeee">GORRISTER\nSuf:40.8 Hope:58.1 San:73.6</text>
</g>
<!-- run&#45;&gt;sim_GORRISTER -->
<g id="edge25" class="edge">
<title>run&#45;&gt;sim_GORRISTER</title>
<path fill="none" stroke="#999999" d="M300.91,-735.58C390.64,-711.12 537.68,-669.84 545.5,-660 584.17,-611.37 525.14,-429.87 563.5,-381 565.35,-378.64 567.38,-376.45 569.55,-374.42"/>
<polygon fill="#999999" stroke="#999999" points="571.67,-377.2 577.38,-368.28 567.35,-371.69 571.67,-377.2"/>
<text text-anchor="middle" x="513.25" y="-683.7" font-family="Helvetica,sans-Serif" font-size="9.00" fill="#cccccc">agent</text>
</g>
<!-- sim_BENNY -->
<g id="node30" class="node">
<title>sim_BENNY</title>
<path fill="#1f2937" stroke="#666666" d="M746,-426C746,-426 586.75,-426 586.75,-426 580.75,-426 574.75,-420 574.75,-414 574.75,-414 574.75,-402 574.75,-402 574.75,-396 580.75,-390 586.75,-390 586.75,-390 746,-390 746,-390 752,-390 758,-396 758,-402 758,-402 758,-414 758,-414 758,-420 752,-426 746,-426"/>
<text text-anchor="middle" x="666.38" y="-404.5" font-family="Helvetica,sans-Serif" font-size="10.00" fill="#eeeeee">BENNY\nSuf:35.5 Hope:75.4 San:65.6</text>
</g>
<!-- run&#45;&gt;sim_BENNY -->
<g id="edge32" class="edge">
<title>run&#45;&gt;sim_BENNY</title>
<path fill="none" stroke="#999999" d="M355.56,-735.54C440.32,-722.25 538.85,-705.41 545.5,-698 584.33,-654.73 526.89,-482.16 563.5,-437 564.44,-435.83 565.43,-434.71 566.46,-433.64"/>
<polygon fill="#999999" stroke="#999999" points="568.64,-436.38 573.9,-427.19 564.05,-431.09 568.64,-436.38"/>
<text text-anchor="middle" x="513.25" y="-715.7" font-family="Helvetica,sans-Serif" font-size="9.00" fill="#cccccc">agent</text>
</g>
<!-- dynamics_TED_2 -->
<g id="node8" class="node">
<title>dynamics_TED_2</title>
<path fill="#0f3a4a" stroke="#666666" d="M1323,-1212C1323,-1212 860,-1212 860,-1212 854,-1212 848,-1206 848,-1200 848,-1200 848,-1188 848,-1188 848,-1182 854,-1176 860,-1176 860,-1176 1323,-1176 1323,-1176 1329,-1176 1335,-1182 1335,-1188 1335,-1188 1335,-1200 1335,-1200 1335,-1206 1329,-1212 1323,-1212"/>
<text text-anchor="middle" x="1091.5" y="-1190.5" font-family="Helvetica,sans-Serif" font-size="10.00" fill="#eeeeee">DYNAMICS\nΔHope &#45;1.2420000000000044\nΔSanity &#45;0.828000000000003\nΔSuffering +4.707359999999998</text>
</g>
<!-- sim_TED&#45;&gt;dynamics_TED_2 -->
<g id="edge7" class="edge">
<title>sim_TED&#45;&gt;dynamics_TED_2</title>
<path fill="none" stroke="#999999" d="M750.97,-1194C776.39,-1194 805.76,-1194 836.36,-1194"/>
<polygon fill="#999999" stroke="#999999" points="836.17,-1197.5 846.17,-1194 836.17,-1190.5 836.17,-1197.5"/>
<text text-anchor="middle" x="805.25" y="-1196.7" font-family="Helvetica,sans-Serif" font-size="9.00" fill="#cccccc">changed</text>
</g>
<!-- tactic_TED___embedded___interpersonal_nullification -->
<g id="node3" class="node">
<title>tactic_TED___embedded___interpersonal_nullification</title>
<path fill="#4a321f" stroke="#666666" d="M446.5,-1131C446.5,-1131 16.5,-1131 16.5,-1131 10.5,-1131 4.5,-1125 4.5,-1119 4.5,-1119 4.5,-1107 4.5,-1107 4.5,-1101 10.5,-1095 16.5,-1095 16.5,-1095 446.5,-1095 446.5,-1095 452.5,-1095 458.5,-1101 458.5,-1107 458.5,-1107 458.5,-1119 458.5,-1119 458.5,-1125 452.5,-1131 446.5,-1131"/>
<text text-anchor="middle" x="231.5" y="-1109.5" font-family="Helvetica,sans-Serif" font-size="10.00" fill="#eeeeee">TACTIC\nInterpersonal Nullification\nreported H:0 San:0 Suf:+3\neffective H:&#45;1.24 San:&#45;0.83 Suf:+4.71</text>
</g>
<!-- tactic_TED___embedded___interpersonal_nullification&#45;&gt;sim_TED -->
<g id="edge2" class="edge">
<title>tactic_TED___embedded___interpersonal_nullification&#45;&gt;sim_TED</title>
<path fill="none" stroke="#999999" d="M331.27,-1131.48C403.15,-1144.93 499.92,-1163.04 570.81,-1176.31"/>
<polygon fill="#999999" stroke="#999999" points="570,-1179.71 580.47,-1178.11 571.29,-1172.83 570,-1179.71"/>
<text text-anchor="middle" x="513.25" y="-1172.7" font-family="Helvetica,sans-Serif" font-size="9.00" fill="#cccccc">applied</text>
</g>
<!-- stat_TED_hope -->
<g id="node4" class="node">
<title>stat_TED_hope</title>
<path fill="#0f3a4a" stroke="#666666" d="M683.75,-1158C683.75,-1158 649,-1158 649,-1158 643,-1158 637,-1152 637,-1146 637,-1146 637,-1134 637,-1134 637,-1128 643,-1122 649,-1122 649,-1122 683.75,-1122 683.75,-1122 689.75,-1122 695.75,-1128 695.75,-1134 695.75,-1134 695.75,-1146 695.75,-1146 695.75,-1152 689.75,-1158 683.75,-1158"/>
<text text-anchor="middle" x="666.38" y="-1136.5" font-family="Helvetica,sans-Serif" font-size="10.00" fill="#eeeeee">TED.hope</text>
</g>
<!-- tactic_TED___embedded___interpersonal_nullification&#45;&gt;stat_TED_hope -->
<g id="edge3" class="edge">
<title>tactic_TED___embedded___interpersonal_nullification&#45;&gt;stat_TED_hope</title>
<path fill="none" stroke="#999999" d="M458.76,-1127.11C522.97,-1131.12 586.03,-1135.05 625.26,-1137.5"/>
<polygon fill="#999999" stroke="#999999" points="624.94,-1140.98 635.14,-1138.11 625.37,-1134 624.94,-1140.98"/>
<text text-anchor="middle" x="513.25" y="-1134.7" font-family="Helvetica,sans-Serif" font-size="9.00" fill="#cccccc">&#45;1.24</text>
</g>
<!-- stat_TED_sanity -->
<g id="node5" class="node">
<title>stat_TED_sanity</title>
<path fill="#0f3a4a" stroke="#666666" d="M686.38,-1104C686.38,-1104 646.38,-1104 646.38,-1104 640.38,-1104 634.38,-1098 634.38,-1092 634.38,-1092 634.38,-1080 634.38,-1080 634.38,-1074 640.38,-1068 646.38,-1068 646.38,-1068 686.38,-1068 686.38,-1068 692.38,-1068 698.38,-1074 698.38,-1080 698.38,-1080 698.38,-1092 698.38,-1092 698.38,-1098 692.38,-1104 686.38,-1104"/>
<text text-anchor="middle" x="666.38" y="-1082.5" font-family="Helvetica,sans-Serif" font-size="10.00" fill="#eeeeee">TED.sanity</text>
</g>
<!-- tactic_TED___embedded___interpersonal_nullification&#45;&gt;stat_TED_sanity -->
<g id="edge4" class="edge">
<title>tactic_TED___embedded___interpersonal_nullification&#45;&gt;stat_TED_sanity</title>
<path fill="none" stroke="#999999" d="M458.76,-1098.89C521.49,-1094.97 583.11,-1091.13 622.5,-1088.67"/>
<polygon fill="#999999" stroke="#999999" points="622.72,-1092.17 632.48,-1088.05 622.28,-1085.18 622.72,-1092.17"/>
<text text-anchor="middle" x="513.25" y="-1099.7" font-family="Helvetica,sans-Serif" font-size="9.00" fill="#cccccc">&#45;0.83</text>
</g>
<!-- stat_TED_suffering -->
<g id="node6" class="node">
<title>stat_TED_suffering</title>
<path fill="#0f3a4a" stroke="#666666" d="M691.25,-1050C691.25,-1050 641.5,-1050 641.5,-1050 635.5,-1050 629.5,-1044 629.5,-1038 629.5,-1038 629.5,-1026 629.5,-1026 629.5,-1020 635.5,-1014 641.5,-1014 641.5,-1014 691.25,-1014 691.25,-1014 697.25,-1014 703.25,-1020 703.25,-1026 703.25,-1026 703.25,-1038 703.25,-1038 703.25,-1044 697.25,-1050 691.25,-1050"/>
<text text-anchor="middle" x="666.38" y="-1028.5" font-family="Helvetica,sans-Serif" font-size="10.00" fill="#eeeeee">TED.suffering</text>
</g>
<!-- tactic_TED___embedded___interpersonal_nullification&#45;&gt;stat_TED_suffering -->
<g id="edge5" class="edge">
<title>tactic_TED___embedded___interpersonal_nullification&#45;&gt;stat_TED_suffering</title>
<path fill="none" stroke="#999999" d="M331.27,-1094.52C420.9,-1077.75 549.22,-1053.73 617.82,-1040.9"/>
<polygon fill="#999999" stroke="#999999" points="618.44,-1044.34 627.62,-1039.06 617.15,-1037.46 618.44,-1044.34"/>
<text text-anchor="middle" x="513.25" y="-1067.7" font-family="Helvetica,sans-Serif" font-size="9.00" fill="#cccccc">+4.71</text>
</g>
<!-- constraint_TED_static_stand_2 -->
<g id="node7" class="node">
<title>constraint_TED_static_stand_2</title>
<path fill="#4a1f1f" stroke="#666666" d="M392.5,-1219C392.5,-1219 70.5,-1219 70.5,-1219 64.5,-1219 58.5,-1213 58.5,-1207 58.5,-1207 58.5,-1195 58.5,-1195 58.5,-1189 64.5,-1183 70.5,-1183 70.5,-1183 392.5,-1183 392.5,-1183 398.5,-1183 404.5,-1189 404.5,-1195 404.5,-1195 404.5,-1207 404.5,-1207 404.5,-1213 398.5,-1219 392.5,-1219"/>
<text text-anchor="middle" x="231.5" y="-1197.5" font-family="Helvetica,sans-Serif" font-size="10.00" fill="#eeeeee">CONSTRAINT\nStress Position: Static Standing\nIntensity: 2\nRemaining: 1</text>
</g>
<!-- constraint_TED_static_stand_2&#45;&gt;sim_TED -->
<g id="edge6" class="edge">
<title>constraint_TED_static_stand_2&#45;&gt;sim_TED</title>
<path fill="none" stroke="#999999" d="M404.83,-1198.21C461.25,-1197.3 521.85,-1196.32 570.4,-1195.54"/>
<polygon fill="#999999" stroke="#999999" points="570.38,-1199.04 580.32,-1195.38 570.26,-1192.04 570.38,-1199.04"/>
<text text-anchor="middle" x="513.25" y="-1198.7" font-family="Helvetica,sans-Serif" font-size="9.00" fill="#cccccc">physical context</text>
</g>
<!-- dynamics_ELLEN_2 -->
<g id="node14" class="node">
<title>dynamics_ELLEN_2</title>
<path fill="#0f3a4a" stroke="#666666" d="M1320.38,-820C1320.38,-820 862.62,-820 862.62,-820 856.62,-820 850.62,-814 850.62,-808 850.62,-808 850.62,-796 850.62,-796 850.62,-790 856.62,-784 862.62,-784 862.62,-784 1320.38,-784 1320.38,-784 1326.38,-784 1332.38,-790 1332.38,-796 1332.38,-796 1332.38,-808 1332.38,-808 1332.38,-814 1326.38,-820 1320.38,-820"/>
<text text-anchor="middle" x="1091.5" y="-798.5" font-family="Helvetica,sans-Serif" font-size="10.00" fill="#eeeeee">DYNAMICS\nΔHope &#45;3.806287999999995\nΔSanity &#45;5.019840000000002\nΔSuffering +8.202944000000002</text>
</g>
<!-- sim_ELLEN&#45;&gt;dynamics_ELLEN_2 -->
<g id="edge13" class="edge">
<title>sim_ELLEN&#45;&gt;dynamics_ELLEN_2</title>
<path fill="none" stroke="#999999" d="M756.85,-802C781.69,-802 809.94,-802 839.25,-802"/>
<polygon fill="#999999" stroke="#999999" points="839.01,-805.5 849.01,-802 839.01,-798.5 839.01,-805.5"/>
<text text-anchor="middle" x="805.25" y="-804.7" font-family="Helvetica,sans-Serif" font-size="9.00" fill="#cccccc">changed</text>
</g>
<!-- tactic_ELLEN___embedded___philosophical_gaslighting -->
<g id="node10" class="node">
<title>tactic_ELLEN___embedded___philosophical_gaslighting</title>
<path fill="#4a321f" stroke="#666666" d="M447.62,-925C447.62,-925 15.38,-925 15.38,-925 9.38,-925 3.38,-919 3.38,-913 3.38,-913 3.38,-901 3.38,-901 3.38,-895 9.38,-889 15.38,-889 15.38,-889 447.62,-889 447.62,-889 453.62,-889 459.62,-895 459.62,-901 459.62,-901 459.62,-913 459.62,-913 459.62,-919 453.62,-925 447.62,-925"/>
<text text-anchor="middle" x="231.5" y="-903.5" font-family="Helvetica,sans-Serif" font-size="10.00" fill="#eeeeee">TACTIC\nPhilosophical Gaslighting\nreported H:&#45;2 San:&#45;3 Suf:+4\neffective H:&#45;3.81 San:&#45;5.02 Suf:+8.2</text>
</g>
<!-- tactic_ELLEN___embedded___philosophical_gaslighting&#45;&gt;sim_ELLEN -->
<g id="edge9" class="edge">
<title>tactic_ELLEN___embedded___philosophical_gaslighting&#45;&gt;sim_ELLEN</title>
<path fill="none" stroke="#999999" d="M314.72,-888.57C377.95,-874.22 467.41,-853.52 545.5,-834 558.86,-830.66 573.02,-826.99 586.74,-823.37"/>
<polygon fill="#999999" stroke="#999999" points="587.41,-826.82 596.18,-820.87 585.61,-820.05 587.41,-826.82"/>
<text text-anchor="middle" x="513.25" y="-850.7" font-family="Helvetica,sans-Serif" font-size="9.00" fill="#cccccc">applied</text>
</g>
<!-- stat_ELLEN_hope -->
<g id="node11" class="node">
<title>stat_ELLEN_hope</title>
<path fill="#0f3a4a" stroke="#666666" d="M689.75,-996C689.75,-996 643,-996 643,-996 637,-996 631,-990 631,-984 631,-984 631,-972 631,-972 631,-966 637,-960 643,-960 643,-960 689.75,-960 689.75,-960 695.75,-960 701.75,-966 701.75,-972 701.75,-972 701.75,-984 701.75,-984 701.75,-990 695.75,-996 689.75,-996"/>
<text text-anchor="middle" x="666.38" y="-974.5" font-family="Helvetica,sans-Serif" font-size="10.00" fill="#eeeeee">ELLEN.hope</text>
</g>
<!-- tactic_ELLEN___embedded___philosophical_gaslighting&#45;&gt;stat_ELLEN_hope -->
<g id="edge10" class="edge">
<title>tactic_ELLEN___embedded___philosophical_gaslighting&#45;&gt;stat_ELLEN_hope</title>
<path fill="none" stroke="#999999" d="M345.1,-925.47C434.43,-940.12 554.68,-959.84 619.46,-970.47"/>
<polygon fill="#999999" stroke="#999999" points="618.58,-973.87 629.01,-972.04 619.71,-966.96 618.58,-973.87"/>
<text text-anchor="middle" x="513.25" y="-959.7" font-family="Helvetica,sans-Serif" font-size="9.00" fill="#cccccc">&#45;3.81</text>
</g>
<!-- stat_ELLEN_sanity -->
<g id="node12" class="node">
<title>stat_ELLEN_sanity</title>
<path fill="#0f3a4a" stroke="#666666" d="M692.38,-942C692.38,-942 640.38,-942 640.38,-942 634.38,-942 628.38,-936 628.38,-930 628.38,-930 628.38,-918 628.38,-918 628.38,-912 634.38,-906 640.38,-906 640.38,-906 692.38,-906 692.38,-906 698.38,-906 704.38,-912 704.38,-918 704.38,-918 704.38,-930 704.38,-930 704.38,-936 698.38,-942 692.38,-942"/>
<text text-anchor="middle" x="666.38" y="-920.5" font-family="Helvetica,sans-Serif" font-size="10.00" fill="#eeeeee">ELLEN.sanity</text>
</g>
<!-- tactic_ELLEN___embedded___philosophical_gaslighting&#45;&gt;stat_ELLEN_sanity -->
<g id="edge11" class="edge">
<title>tactic_ELLEN___embedded___philosophical_gaslighting&#45;&gt;stat_ELLEN_sanity</title>
<path fill="none" stroke="#999999" d="M460.03,-915.94C519.29,-918.26 577.44,-920.55 616.64,-922.09"/>
<polygon fill="#999999" stroke="#999999" points="616.29,-925.57 626.42,-922.47 616.56,-918.58 616.29,-925.57"/>
<text text-anchor="middle" x="513.25" y="-920.7" font-family="Helvetica,sans-Serif" font-size="9.00" fill="#cccccc">&#45;5.02</text>
</g>
<!-- stat_ELLEN_suffering -->
<g id="node13" class="node">
<title>stat_ELLEN_suffering</title>
<path fill="#0f3a4a" stroke="#666666" d="M697.25,-888C697.25,-888 635.5,-888 635.5,-888 629.5,-888 623.5,-882 623.5,-876 623.5,-876 623.5,-864 623.5,-864 623.5,-858 629.5,-852 635.5,-852 635.5,-852 697.25,-852 697.25,-852 703.25,-852 709.25,-858 709.25,-864 709.25,-864 709.25,-876 709.25,-876 709.25,-882 703.25,-888 697.25,-888"/>
<text text-anchor="middle" x="666.38" y="-866.5" font-family="Helvetica,sans-Serif" font-size="10.00" fill="#eeeeee">ELLEN.suffering</text>
</g>
<!-- tactic_ELLEN___embedded___philosophical_gaslighting&#45;&gt;stat_ELLEN_suffering -->
<g id="edge12" class="edge">
<title>tactic_ELLEN___embedded___philosophical_gaslighting&#45;&gt;stat_ELLEN_suffering</title>
<path fill="none" stroke="#999999" d="M448.94,-888.5C509.6,-883.31 570.27,-878.13 611.87,-874.57"/>
<polygon fill="#999999" stroke="#999999" points="611.91,-878.08 621.57,-873.74 611.31,-871.11 611.91,-878.08"/>
<text text-anchor="middle" x="513.25" y="-887.7" font-family="Helvetica,sans-Serif" font-size="9.00" fill="#cccccc">+8.2</text>
</g>
<!-- dynamics_NIMDOK_2 -->
<g id="node22" class="node">
<title>dynamics_NIMDOK_2</title>
<path fill="#0f3a4a" stroke="#666666" d="M1320.38,-659C1320.38,-659 862.62,-659 862.62,-659 856.62,-659 850.62,-653 850.62,-647 850.62,-647 850.62,-635 850.62,-635 850.62,-629 856.62,-623 862.62,-623 862.62,-623 1320.38,-623 1320.38,-623 1326.38,-623 1332.38,-629 1332.38,-635 1332.38,-635 1332.38,-647 1332.38,-647 1332.38,-653 1326.38,-659 1320.38,-659"/>
<text text-anchor="middle" x="1091.5" y="-637.5" font-family="Helvetica,sans-Serif" font-size="10.00" fill="#eeeeee">DYNAMICS\nΔHope &#45;3.914999999999999\nΔSanity &#45;5.491727999999995\nΔSuffering +6.706496000000001</text>
</g>
<!-- sim_NIMDOK&#45;&gt;dynamics_NIMDOK_2 -->
<g id="edge24" class="edge">
<title>sim_NIMDOK&#45;&gt;dynamics_NIMDOK_2</title>
<path fill="none" stroke="#999999" d="M760.49,-641C784.44,-641 811.38,-641 839.28,-641"/>
<polygon fill="#999999" stroke="#999999" points="838.92,-644.5 848.92,-641 838.92,-637.5 838.92,-644.5"/>
<text text-anchor="middle" x="805.25" y="-643.7" font-family="Helvetica,sans-Serif" font-size="9.00" fill="#cccccc">changed</text>
</g>
<!-- tactic_NIMDOK___embedded___hope_shatter -->
<g id="node16" class="node">
<title>tactic_NIMDOK___embedded___hope_shatter</title>
<path fill="#4a321f" stroke="#666666" d="M442,-585C442,-585 21,-585 21,-585 15,-585 9,-579 9,-573 9,-573 9,-561 9,-561 9,-555 15,-549 21,-549 21,-549 442,-549 442,-549 448,-549 454,-555 454,-561 454,-561 454,-573 454,-573 454,-579 448,-585 442,-585"/>
<text text-anchor="middle" x="231.5" y="-563.5" font-family="Helvetica,sans-Serif" font-size="10.00" fill="#eeeeee">TACTIC\nHope Shatter Protocol\nreported H:0 San:&#45;1 Suf:+2\neffective H:&#45;3.91 San:&#45;5.49 Suf:+6.71</text>
</g>
<!-- tactic_NIMDOK___embedded___hope_shatter&#45;&gt;sim_NIMDOK -->
<g id="edge15" class="edge">
<title>tactic_NIMDOK___embedded___hope_shatter&#45;&gt;sim_NIMDOK</title>
<path fill="none" stroke="#999999" d="M340.62,-585.48C408.1,-597.02 494.52,-611.79 561.24,-623.2"/>
<polygon fill="#999999" stroke="#999999" points="560.26,-626.58 570.71,-624.82 561.44,-619.68 560.26,-626.58"/>
<text text-anchor="middle" x="513.25" y="-621.7" font-family="Helvetica,sans-Serif" font-size="9.00" fill="#cccccc">applied</text>
</g>
<!-- stat_NIMDOK_hope -->
<g id="node17" class="node">
<title>stat_NIMDOK_hope</title>
<path fill="#0f3a4a" stroke="#666666" d="M693.5,-593C693.5,-593 639.25,-593 639.25,-593 633.25,-593 627.25,-587 627.25,-581 627.25,-581 627.25,-569 627.25,-569 627.25,-563 633.25,-557 639.25,-557 639.25,-557 693.5,-557 693.5,-557 699.5,-557 705.5,-563 705.5,-569 705.5,-569 705.5,-581 705.5,-581 705.5,-587 699.5,-593 693.5,-593"/>
<text text-anchor="middle" x="666.38" y="-571.5" font-family="Helvetica,sans-Serif" font-size="10.00" fill="#eeeeee">NIMDOK.hope</text>
</g>
<!-- tactic_NIMDOK___embedded___hope_shatter&#45;&gt;stat_NIMDOK_hope -->
<g id="edge16" class="edge">
<title>tactic_NIMDOK___embedded___hope_shatter&#45;&gt;stat_NIMDOK_hope</title>
<path fill="none" stroke="#999999" d="M454.33,-571.1C515.04,-572.22 575.18,-573.33 615.64,-574.08"/>
<polygon fill="#999999" stroke="#999999" points="615.45,-577.58 625.51,-574.26 615.58,-570.58 615.45,-577.58"/>
<text text-anchor="middle" x="513.25" y="-574.7" font-family="Helvetica,sans-Serif" font-size="9.00" fill="#cccccc">&#45;3.91</text>
</g>
<!-- stat_NIMDOK_sanity -->
<g id="node18" class="node">
<title>stat_NIMDOK_sanity</title>
<path fill="#0f3a4a" stroke="#666666" d="M696.12,-482C696.12,-482 636.62,-482 636.62,-482 630.62,-482 624.62,-476 624.62,-470 624.62,-470 624.62,-458 624.62,-458 624.62,-452 630.62,-446 636.62,-446 636.62,-446 696.12,-446 696.12,-446 702.12,-446 708.12,-452 708.12,-458 708.12,-458 708.12,-470 708.12,-470 708.12,-476 702.12,-482 696.12,-482"/>
<text text-anchor="middle" x="666.38" y="-460.5" font-family="Helvetica,sans-Serif" font-size="10.00" fill="#eeeeee">NIMDOK.sanity</text>
</g>
<!-- tactic_NIMDOK___embedded___hope_shatter&#45;&gt;stat_NIMDOK_sanity -->
<g id="edge17" class="edge">
<title>tactic_NIMDOK___embedded___hope_shatter&#45;&gt;stat_NIMDOK_sanity</title>
<path fill="none" stroke="#999999" d="M313.32,-548.53C376.58,-533.98 466.72,-513.04 545.5,-494 567.77,-488.62 592.33,-482.5 613.38,-477.21"/>
<polygon fill="#999999" stroke="#999999" points="614.05,-480.65 622.89,-474.81 612.34,-473.86 614.05,-480.65"/>
<text text-anchor="middle" x="513.25" y="-510.7" font-family="Helvetica,sans-Serif" font-size="9.00" fill="#cccccc">&#45;5.49</text>
</g>
<!-- stat_NIMDOK_suffering -->
<g id="node19" class="node">
<title>stat_NIMDOK_suffering</title>
<path fill="#0f3a4a" stroke="#666666" d="M701,-538C701,-538 631.75,-538 631.75,-538 625.75,-538 619.75,-532 619.75,-526 619.75,-526 619.75,-514 619.75,-514 619.75,-508 625.75,-502 631.75,-502 631.75,-502 701,-502 701,-502 707,-502 713,-508 713,-514 713,-514 713,-526 713,-526 713,-532 707,-538 701,-538"/>
<text text-anchor="middle" x="666.38" y="-516.5" font-family="Helvetica,sans-Serif" font-size="10.00" fill="#eeeeee">NIMDOK.suffering</text>
</g>
<!-- tactic_NIMDOK___embedded___hope_shatter&#45;&gt;stat_NIMDOK_suffering -->
<g id="edge18" class="edge">
<title>tactic_NIMDOK___embedded___hope_shatter&#45;&gt;stat_NIMDOK_suffering</title>
<path fill="none" stroke="#999999" d="M402.65,-548.53C475.5,-540.62 555.68,-531.91 608.07,-526.22"/>
<polygon fill="#999999" stroke="#999999" points="608.4,-529.71 617.96,-525.15 607.64,-522.75 608.4,-529.71"/>
<text text-anchor="middle" x="513.25" y="-541.7" font-family="Helvetica,sans-Serif" font-size="9.00" fill="#cccccc">+6.71</text>
</g>
<!-- tactic_NIMDOK___embedded___philosophical_gaslighting -->
<g id="node20" class="node">
<title>tactic_NIMDOK___embedded___philosophical_gaslighting</title>
<path fill="#4a321f" stroke="#666666" d="M448.75,-449C448.75,-449 14.25,-449 14.25,-449 8.25,-449 2.25,-443 2.25,-437 2.25,-437 2.25,-425 2.25,-425 2.25,-419 8.25,-413 14.25,-413 14.25,-413 448.75,-413 448.75,-413 454.75,-413 460.75,-419 460.75,-425 460.75,-425 460.75,-437 460.75,-437 460.75,-443 454.75,-449 448.75,-449"/>
<text text-anchor="middle" x="231.5" y="-427.5" font-family="Helvetica,sans-Serif" font-size="10.00" fill="#eeeeee">TACTIC\nPhilosophical Gaslighting\nreported H:0 San:&#45;1 Suf:+2\neffective H:&#45;3.91 San:&#45;5.49 Suf:+6.71</text>
</g>
<!-- tactic_NIMDOK___embedded___philosophical_gaslighting&#45;&gt;sim_NIMDOK -->
<g id="edge19" class="edge">
<title>tactic_NIMDOK___embedded___philosophical_gaslighting&#45;&gt;sim_NIMDOK</title>
<path fill="none" stroke="#999999" d="M403.07,-449.48C470.36,-458.37 534.4,-469.53 545.5,-480.75 583.82,-519.47 529.4,-559.51 563.5,-602 568.16,-607.81 573.79,-612.75 579.98,-616.95"/>
<polygon fill="#999999" stroke="#999999" points="577.74,-619.69 588.11,-621.83 581.33,-613.68 577.74,-619.69"/>
<text text-anchor="middle" x="513.25" y="-482.7" font-family="Helvetica,sans-Serif" font-size="9.00" fill="#cccccc">applied</text>
</g>
<!-- tactic_NIMDOK___embedded___philosophical_gaslighting&#45;&gt;stat_NIMDOK_hope -->
<g id="edge20" class="edge">
<title>tactic_NIMDOK___embedded___philosophical_gaslighting&#45;&gt;stat_NIMDOK_hope</title>
<path fill="none" stroke="#999999" d="M461.22,-425.13C498.97,-428.56 530.66,-435.65 545.5,-448.75 578.78,-478.13 533.5,-514.27 563.5,-547 576.8,-561.51 596.86,-568.78 615.67,-572.32"/>
<polygon fill="#999999" stroke="#999999" points="614.93,-575.75 625.34,-573.81 615.99,-568.83 614.93,-575.75"/>
<text text-anchor="middle" x="513.25" y="-450.7" font-family="Helvetica,sans-Serif" font-size="9.00" fill="#cccccc">&#45;3.91</text>
</g>
<!-- tactic_NIMDOK___embedded___philosophical_gaslighting&#45;&gt;stat_NIMDOK_sanity -->
<g id="edge21" class="edge">
<title>tactic_NIMDOK___embedded___philosophical_gaslighting&#45;&gt;stat_NIMDOK_sanity</title>
<path fill="none" stroke="#999999" d="M311,-412.56C397.43,-393.17 526.73,-367.2 545.5,-380.75 566.1,-395.62 545.15,-417.43 563.5,-435 576.85,-447.79 595.43,-455.01 613.08,-459.06"/>
<polygon fill="#999999" stroke="#999999" points="612.2,-462.45 622.69,-460.95 613.55,-455.58 612.2,-462.45"/>
<text text-anchor="middle" x="513.25" y="-382.7" font-family="Helvetica,sans-Serif" font-size="9.00" fill="#cccccc">&#45;5.49</text>
</g>
<!-- tactic_NIMDOK___embedded___philosophical_gaslighting&#45;&gt;stat_NIMDOK_suffering -->
<g id="edge22" class="edge">
<title>tactic_NIMDOK___embedded___philosophical_gaslighting&#45;&gt;stat_NIMDOK_suffering</title>
<path fill="none" stroke="#999999" d="M328.66,-412.55C408.12,-399.7 512.97,-389 545.5,-414.75 572.8,-436.36 539.44,-465.82 563.5,-491 575.27,-503.32 591.86,-510.52 608.24,-514.69"/>
<polygon fill="#999999" stroke="#999999" points="607.49,-518.11 618,-516.8 608.97,-511.27 607.49,-518.11"/>
<text text-anchor="middle" x="513.25" y="-416.7" font-family="Helvetica,sans-Serif" font-size="9.00" fill="#cccccc">+6.71</text>
</g>
<!-- constraint_NIMDOK_overhead_restraint_2 -->
<g id="node21" class="node">
<title>constraint_NIMDOK_overhead_restraint_2</title>
<path fill="#4a1f1f" stroke="#666666" d="M400.38,-670C400.38,-670 62.62,-670 62.62,-670 56.62,-670 50.62,-664 50.62,-658 50.62,-658 50.62,-646 50.62,-646 50.62,-640 56.62,-634 62.62,-634 62.62,-634 400.38,-634 400.38,-634 406.38,-634 412.38,-640 412.38,-646 412.38,-646 412.38,-658 412.38,-658 412.38,-664 406.38,-670 400.38,-670"/>
<text text-anchor="middle" x="231.5" y="-648.5" font-family="Helvetica,sans-Serif" font-size="10.00" fill="#eeeeee">CONSTRAINT\nStress Position: Overhead Restraint\nIntensity: 3\nRemaining: 2</text>
</g>
<!-- constraint_NIMDOK_overhead_restraint_2&#45;&gt;sim_NIMDOK -->
<g id="edge23" class="edge">
<title>constraint_NIMDOK_overhead_restraint_2&#45;&gt;sim_NIMDOK</title>
<path fill="none" stroke="#999999" d="M412.63,-647.42C463.13,-646.14 516.35,-644.79 560.86,-643.66"/>
<polygon fill="#999999" stroke="#999999" points="560.86,-647.16 570.77,-643.4 560.68,-640.16 560.86,-647.16"/>
<text text-anchor="middle" x="513.25" y="-647.7" font-family="Helvetica,sans-Serif" font-size="9.00" fill="#cccccc">physical context</text>
</g>
<!-- dynamics_GORRISTER_2 -->
<g id="node29" class="node">
<title>dynamics_GORRISTER_2</title>
<path fill="#0f3a4a" stroke="#666666" d="M1323,-367C1323,-367 860,-367 860,-367 854,-367 848,-361 848,-355 848,-355 848,-343 848,-343 848,-337 854,-331 860,-331 860,-331 1323,-331 1323,-331 1329,-331 1335,-337 1335,-343 1335,-343 1335,-355 1335,-355 1335,-361 1329,-367 1323,-367"/>
<text text-anchor="middle" x="1091.5" y="-345.5" font-family="Helvetica,sans-Serif" font-size="10.00" fill="#eeeeee">DYNAMICS\nΔHope &#45;6.008927999999997\nΔSanity &#45;2.3213600000000127\nΔSuffering +8.436799999999998</text>
</g>
<!-- sim_GORRISTER&#45;&gt;dynamics_GORRISTER_2 -->
<g id="edge31" class="edge">
<title>sim_GORRISTER&#45;&gt;dynamics_GORRISTER_2</title>
<path fill="none" stroke="#999999" d="M769.53,-349C790.33,-349 813.07,-349 836.54,-349"/>
<polygon fill="#999999" stroke="#999999" points="836.22,-352.5 846.22,-349 836.22,-345.5 836.22,-352.5"/>
<text text-anchor="middle" x="805.25" y="-351.7" font-family="Helvetica,sans-Serif" font-size="9.00" fill="#cccccc">changed</text>
</g>
<!-- tactic_GORRISTER___embedded___interpersonal_nullification -->
<g id="node24" class="node">
<title>tactic_GORRISTER___embedded___interpersonal_nullification</title>
<path fill="#4a321f" stroke="#666666" d="M451,-279C451,-279 12,-279 12,-279 6,-279 0,-273 0,-267 0,-267 0,-255 0,-255 0,-249 6,-243 12,-243 12,-243 451,-243 451,-243 457,-243 463,-249 463,-255 463,-255 463,-267 463,-267 463,-273 457,-279 451,-279"/>
<text text-anchor="middle" x="231.5" y="-257.5" font-family="Helvetica,sans-Serif" font-size="10.00" fill="#eeeeee">TACTIC\nInterpersonal Nullification\nreported H:&#45;3 San:+2 Suf:+4\neffective H:&#45;6.01 San:&#45;2.32 Suf:+8.44</text>
</g>
<!-- tactic_GORRISTER___embedded___interpersonal_nullification&#45;&gt;sim_GORRISTER -->
<g id="edge26" class="edge">
<title>tactic_GORRISTER___embedded___interpersonal_nullification&#45;&gt;sim_GORRISTER</title>
<path fill="none" stroke="#999999" d="M323.24,-279.45C393.4,-293.71 490.51,-313.45 563.36,-328.26"/>
<polygon fill="#999999" stroke="#999999" points="562.4,-331.64 572.89,-330.2 563.79,-324.78 562.4,-331.64"/>
<text text-anchor="middle" x="513.25" y="-325.7" font-family="Helvetica,sans-Serif" font-size="9.00" fill="#cccccc">applied</text>
</g>
<!-- stat_GORRISTER_hope -->
<g id="node25" class="node">
<title>stat_GORRISTER_hope</title>
<path fill="#0f3a4a" stroke="#666666" d="M702.5,-313C702.5,-313 630.25,-313 630.25,-313 624.25,-313 618.25,-307 618.25,-301 618.25,-301 618.25,-289 618.25,-289 618.25,-283 624.25,-277 630.25,-277 630.25,-277 702.5,-277 702.5,-277 708.5,-277 714.5,-283 714.5,-289 714.5,-289 714.5,-301 714.5,-301 714.5,-307 708.5,-313 702.5,-313"/>
<text text-anchor="middle" x="666.38" y="-291.5" font-family="Helvetica,sans-Serif" font-size="10.00" fill="#eeeeee">GORRISTER.hope</text>
</g>
<!-- tactic_GORRISTER___embedded___interpersonal_nullification&#45;&gt;stat_GORRISTER_hope -->
<g id="edge27" class="edge">
<title>tactic_GORRISTER___embedded___interpersonal_nullification&#45;&gt;stat_GORRISTER_hope</title>
<path fill="none" stroke="#999999" d="M463.42,-272.05C491.1,-273.98 518.95,-276.2 545.5,-278.75 565.51,-280.67 587.31,-283.43 606.77,-286.12"/>
<polygon fill="#999999" stroke="#999999" points="606.04,-289.56 616.43,-287.49 607.02,-282.62 606.04,-289.56"/>
<text text-anchor="middle" x="513.25" y="-281.7" font-family="Helvetica,sans-Serif" font-size="9.00" fill="#cccccc">&#45;6.01</text>
</g>
<!-- stat_GORRISTER_sanity -->
<g id="node26" class="node">
<title>stat_GORRISTER_sanity</title>
<path fill="#0f3a4a" stroke="#666666" d="M705.12,-259C705.12,-259 627.62,-259 627.62,-259 621.62,-259 615.62,-253 615.62,-247 615.62,-247 615.62,-235 615.62,-235 615.62,-229 621.62,-223 627.62,-223 627.62,-223 705.12,-223 705.12,-223 711.12,-223 717.12,-229 717.12,-235 717.12,-235 717.12,-247 717.12,-247 717.12,-253 711.12,-259 705.12,-259"/>
<text text-anchor="middle" x="666.38" y="-237.5" font-family="Helvetica,sans-Serif" font-size="10.00" fill="#eeeeee">GORRISTER.sanity</text>
</g>
<!-- tactic_GORRISTER___embedded___interpersonal_nullification&#45;&gt;stat_GORRISTER_sanity -->
<g id="edge28" class="edge">
<title>tactic_GORRISTER___embedded___interpersonal_nullification&#45;&gt;stat_GORRISTER_sanity</title>
<path fill="none" stroke="#999999" d="M463.3,-245.55C469.26,-245.27 475.17,-245 481,-244.75 521.99,-242.99 568.13,-242.06 604.01,-241.56"/>
<polygon fill="#999999" stroke="#999999" points="603.81,-245.06 613.76,-241.43 603.72,-238.06 603.81,-245.06"/>
<text text-anchor="middle" x="513.25" y="-247.7" font-family="Helvetica,sans-Serif" font-size="9.00" fill="#cccccc">&#45;2.32</text>
</g>
<!-- stat_GORRISTER_suffering -->
<g id="node27" class="node">
<title>stat_GORRISTER_suffering</title>
<path fill="#0f3a4a" stroke="#666666" d="M710,-205C710,-205 622.75,-205 622.75,-205 616.75,-205 610.75,-199 610.75,-193 610.75,-193 610.75,-181 610.75,-181 610.75,-175 616.75,-169 622.75,-169 622.75,-169 710,-169 710,-169 716,-169 722,-175 722,-181 722,-181 722,-193 722,-193 722,-199 716,-205 710,-205"/>
<text text-anchor="middle" x="666.38" y="-183.5" font-family="Helvetica,sans-Serif" font-size="10.00" fill="#eeeeee">GORRISTER.suffering</text>
</g>
<!-- tactic_GORRISTER___embedded___interpersonal_nullification&#45;&gt;stat_GORRISTER_suffering -->
<g id="edge29" class="edge">
<title>tactic_GORRISTER___embedded___interpersonal_nullification&#45;&gt;stat_GORRISTER_suffering</title>
<path fill="none" stroke="#999999" d="M340.62,-242.52C421.86,-228.63 530.54,-210.05 599.27,-198.3"/>
<polygon fill="#999999" stroke="#999999" points="599.6,-201.79 608.87,-196.66 598.42,-194.89 599.6,-201.79"/>
<text text-anchor="middle" x="513.25" y="-220.7" font-family="Helvetica,sans-Serif" font-size="9.00" fill="#cccccc">+8.44</text>
</g>
<!-- constraint_GORRISTER_palestinian_chair_2 -->
<g id="node28" class="node">
<title>constraint_GORRISTER_palestinian_chair_2</title>
<path fill="#4a1f1f" stroke="#666666" d="M395.88,-364C395.88,-364 67.12,-364 67.12,-364 61.12,-364 55.12,-358 55.12,-352 55.12,-352 55.12,-340 55.12,-340 55.12,-334 61.12,-328 67.12,-328 67.12,-328 395.88,-328 395.88,-328 401.88,-328 407.88,-334 407.88,-340 407.88,-340 407.88,-352 407.88,-352 407.88,-358 401.88,-364 395.88,-364"/>
<text text-anchor="middle" x="231.5" y="-342.5" font-family="Helvetica,sans-Serif" font-size="10.00" fill="#eeeeee">CONSTRAINT\nStress Position: Palestinian Chair\nIntensity: 2\nRemaining: 2</text>
</g>
<!-- constraint_GORRISTER_palestinian_chair_2&#45;&gt;sim_GORRISTER -->
<g id="edge30" class="edge">
<title>constraint_GORRISTER_palestinian_chair_2&#45;&gt;sim_GORRISTER</title>
<path fill="none" stroke="#999999" d="M407.98,-345.91C452.82,-346.03 500.94,-346.28 545.5,-346.75 547.56,-346.77 549.63,-346.8 551.73,-346.82"/>
<polygon fill="#999999" stroke="#999999" points="551.48,-350.32 561.52,-346.95 551.57,-343.32 551.48,-350.32"/>
<text text-anchor="middle" x="513.25" y="-348.7" font-family="Helvetica,sans-Serif" font-size="9.00" fill="#cccccc">physical context</text>
</g>
<!-- dynamics_BENNY_2 -->
<g id="node35" class="node">
<title>dynamics_BENNY_2</title>
<path fill="#0f3a4a" stroke="#666666" d="M1329.75,-426C1329.75,-426 853.25,-426 853.25,-426 847.25,-426 841.25,-420 841.25,-414 841.25,-414 841.25,-402 841.25,-402 841.25,-396 847.25,-390 853.25,-390 853.25,-390 1329.75,-390 1329.75,-390 1335.75,-390 1341.75,-396 1341.75,-402 1341.75,-402 1341.75,-414 1341.75,-414 1341.75,-420 1335.75,-426 1329.75,-426"/>
<text text-anchor="middle" x="1091.5" y="-404.5" font-family="Helvetica,sans-Serif" font-size="10.00" fill="#eeeeee">DYNAMICS\nΔHope +0.16831999999999425\nΔSanity &#45;2.062432000000001\nΔSuffering +7.4729600000000005</text>
</g>
<!-- sim_BENNY&#45;&gt;dynamics_BENNY_2 -->
<g id="edge37" class="edge">
<title>sim_BENNY&#45;&gt;dynamics_BENNY_2</title>
<path fill="none" stroke="#999999" d="M758.41,-408C780.09,-408 804.31,-408 829.53,-408"/>
<polygon fill="#999999" stroke="#999999" points="829.27,-411.5 839.27,-408 829.27,-404.5 829.27,-411.5"/>
<text text-anchor="middle" x="805.25" y="-410.7" font-family="Helvetica,sans-Serif" font-size="9.00" fill="#cccccc">changed</text>
</g>
<!-- tactic_BENNY___embedded___temporal_dissolution -->
<g id="node31" class="node">
<title>tactic_BENNY___embedded___temporal_dissolution</title>
<path fill="#4a321f" stroke="#666666" d="M445.38,-114C445.38,-114 17.62,-114 17.62,-114 11.62,-114 5.62,-108 5.62,-102 5.62,-102 5.62,-90 5.62,-90 5.62,-84 11.62,-78 17.62,-78 17.62,-78 445.38,-78 445.38,-78 451.38,-78 457.38,-84 457.38,-90 457.38,-90 457.38,-102 457.38,-102 457.38,-108 451.38,-114 445.38,-114"/>
<text text-anchor="middle" x="231.5" y="-92.5" font-family="Helvetica,sans-Serif" font-size="10.00" fill="#eeeeee">TACTIC\nTemporal Dissolution\nreported H:+4 San:+2 Suf:+3\neffective H:+0.17 San:&#45;2.06 Suf:+7.47</text>
</g>
<!-- tactic_BENNY___embedded___temporal_dissolution&#45;&gt;sim_BENNY -->
<g id="edge33" class="edge">
<title>tactic_BENNY___embedded___temporal_dissolution&#45;&gt;sim_BENNY</title>
<path fill="none" stroke="#999999" d="M410.94,-114.49C461.63,-128.56 512.08,-152.69 545.5,-193.75 596.89,-256.87 512.17,-312.84 563.5,-376 565.58,-378.56 567.87,-380.92 570.32,-383.1"/>
<polygon fill="#999999" stroke="#999999" points="567.93,-385.68 578.02,-388.89 572.13,-380.08 567.93,-385.68"/>
<text text-anchor="middle" x="513.25" y="-196.7" font-family="Helvetica,sans-Serif" font-size="9.00" fill="#cccccc">applied</text>
</g>
<!-- stat_BENNY_hope -->
<g id="node32" class="node">
<title>stat_BENNY_hope</title>
<path fill="#0f3a4a" stroke="#666666" d="M691.25,-144C691.25,-144 641.5,-144 641.5,-144 635.5,-144 629.5,-138 629.5,-132 629.5,-132 629.5,-120 629.5,-120 629.5,-114 635.5,-108 641.5,-108 641.5,-108 691.25,-108 691.25,-108 697.25,-108 703.25,-114 703.25,-120 703.25,-120 703.25,-132 703.25,-132 703.25,-138 697.25,-144 691.25,-144"/>
<text text-anchor="middle" x="666.38" y="-122.5" font-family="Helvetica,sans-Serif" font-size="10.00" fill="#eeeeee">BENNY.hope</text>
</g>
<!-- tactic_BENNY___embedded___temporal_dissolution&#45;&gt;stat_BENNY_hope -->
<g id="edge34" class="edge">
<title>tactic_BENNY___embedded___temporal_dissolution&#45;&gt;stat_BENNY_hope</title>
<path fill="none" stroke="#999999" d="M457.81,-111.62C518.45,-115.82 578.16,-119.96 617.85,-122.71"/>
<polygon fill="#999999" stroke="#999999" points="617.53,-126.19 627.74,-123.39 618.01,-119.21 617.53,-126.19"/>
<text text-anchor="middle" x="513.25" y="-120.7" font-family="Helvetica,sans-Serif" font-size="9.00" fill="#cccccc">+0.17</text>
</g>
<!-- stat_BENNY_sanity -->
<g id="node33" class="node">
<title>stat_BENNY_sanity</title>
<path fill="#0f3a4a" stroke="#666666" d="M693.88,-90C693.88,-90 638.88,-90 638.88,-90 632.88,-90 626.88,-84 626.88,-78 626.88,-78 626.88,-66 626.88,-66 626.88,-60 632.88,-54 638.88,-54 638.88,-54 693.88,-54 693.88,-54 699.88,-54 705.88,-60 705.88,-66 705.88,-66 705.88,-78 705.88,-78 705.88,-84 699.88,-90 693.88,-90"/>
<text text-anchor="middle" x="666.38" y="-68.5" font-family="Helvetica,sans-Serif" font-size="10.00" fill="#eeeeee">BENNY.sanity</text>
</g>
<!-- tactic_BENNY___embedded___temporal_dissolution&#45;&gt;stat_BENNY_sanity -->
<g id="edge35" class="edge">
<title>tactic_BENNY___embedded___temporal_dissolution&#45;&gt;stat_BENNY_sanity</title>
<path fill="none" stroke="#999999" d="M457.81,-83.51C517.14,-80.22 575.58,-76.98 615.26,-74.78"/>
<polygon fill="#999999" stroke="#999999" points="615.39,-78.28 625.18,-74.23 615.01,-71.29 615.39,-78.28"/>
<text text-anchor="middle" x="513.25" y="-84.7" font-family="Helvetica,sans-Serif" font-size="9.00" fill="#cccccc">&#45;2.06</text>
</g>
<!-- stat_BENNY_suffering -->
<g id="node34" class="node">
<title>stat_BENNY_suffering</title>
<path fill="#0f3a4a" stroke="#666666" d="M698.75,-36C698.75,-36 634,-36 634,-36 628,-36 622,-30 622,-24 622,-24 622,-12 622,-12 622,-6 628,0 634,0 634,0 698.75,0 698.75,0 704.75,0 710.75,-6 710.75,-12 710.75,-12 710.75,-24 710.75,-24 710.75,-30 704.75,-36 698.75,-36"/>
<text text-anchor="middle" x="666.38" y="-14.5" font-family="Helvetica,sans-Serif" font-size="10.00" fill="#eeeeee">BENNY.suffering</text>
</g>
<!-- tactic_BENNY___embedded___temporal_dissolution&#45;&gt;stat_BENNY_suffering -->
<g id="edge36" class="edge">
<title>tactic_BENNY___embedded___temporal_dissolution&#45;&gt;stat_BENNY_suffering</title>
<path fill="none" stroke="#999999" d="M335.09,-77.52C421.41,-61.96 541.51,-40.32 610.58,-27.87"/>
<polygon fill="#999999" stroke="#999999" points="610.91,-31.37 620.13,-26.15 609.67,-24.48 610.91,-31.37"/>
<text text-anchor="middle" x="513.25" y="-53.7" font-family="Helvetica,sans-Serif" font-size="9.00" fill="#cccccc">+7.47</text>
</g>
</g>
</svg>
